<svg width="414" height="893" viewBox="0 0 414 893" fill="none" xmlns="http://www.w3.org/2000/svg">
<rect width="414" height="893" fill="white"/>
<path d="M0.147123 264.077C0.147123 264.077 -3.04598 288.411 62.5317 288.275C128.11 288.139 367.088 288.275 367.088 288.275C367.088 288.275 404.266 284.764 413.599 308.962C414.027 227.119 414.231 178.779 413.599 153.532C413.599 153.532 413.505 142.541 413.599 153.532C413.599 153.532 412.174 137.807 372.694 139.806C357.81 139.183 338.011 140.936 336.151 123.638C336.007 108.265 333.038 89.3827 315.021 87.7346C114.112 87.5986 0 87.9815 0 87.9815L0.147123 264.077Z" fill="#004880"/>
<rect width="414" height="203" fill="#004880"/>
</svg>
