<svg width="23" height="23" viewBox="0 0 23 23" fill="none" xmlns="http://www.w3.org/2000/svg">
<path d="M22.9886 17.368C22.7848 18.9233 22.0232 20.3517 20.8454 21.3877C19.6675 22.4236 18.1535 22.9965 16.5849 23C7.44019 23 0 15.5598 0 6.41506C0.00345791 4.84647 0.576411 3.33251 1.61233 2.15465C2.64826 0.976786 4.07666 0.215183 5.63197 0.0114364C6.02845 -0.0325241 6.42862 0.0509511 6.77446 0.249757C7.1203 0.448562 7.39382 0.752362 7.55536 1.1171L9.87034 6.51872C9.99042 6.7991 10.0386 7.10503 10.0104 7.40874C9.98225 7.71245 9.87868 8.00431 9.7091 8.25784L7.79722 11.1832C8.66296 12.9402 10.0895 14.3586 11.8513 15.2143L14.7422 13.2909C14.9954 13.1202 15.288 13.0168 15.5923 12.9907C15.8966 12.9645 16.2026 13.0163 16.4813 13.1412L21.8829 15.4446C22.2476 15.6062 22.5514 15.8797 22.7502 16.2255C22.949 16.5714 23.0325 16.9716 22.9886 17.368Z" fill="white"/>
</svg>
