<svg width="49" height="57" viewBox="0 0 49 57" fill="none" xmlns="http://www.w3.org/2000/svg">
<path fill-rule="evenodd" clip-rule="evenodd" d="M4.9 0C3.60044 0 2.35411 0.600534 1.43518 1.66949C0.516249 2.73845 0 4.18827 0 5.7L0 51.3C0 52.8117 0.516249 54.2615 1.43518 55.3305C2.35411 56.3995 3.60044 57 4.9 57H44.1C45.3996 57 46.6459 56.3995 47.5648 55.3305C48.4838 54.2615 49 52.8117 49 51.3V5.7C49 4.18827 48.4838 2.73845 47.5648 1.66949C46.6459 0.600534 45.3996 0 44.1 0L4.9 0ZM21.2333 34.2C18.201 34.2 15.2929 35.6012 13.1487 38.0955C11.0046 40.5897 9.8 43.9726 9.8 47.5V51.3C9.8 51.8039 9.97208 52.2872 10.2784 52.6435C10.5847 52.9998 11.0001 53.2 11.4333 53.2H37.5667C37.9999 53.2 38.4153 52.9998 38.7216 52.6435C39.0279 52.2872 39.2 51.8039 39.2 51.3V47.5C39.2 43.9726 37.9954 40.5897 35.8513 38.0955C33.7071 35.6012 30.799 34.2 27.7667 34.2H21.2333ZM16.3333 20.9C16.3333 18.3804 17.1937 15.9641 18.7253 14.1825C20.2568 12.4009 22.3341 11.4 24.5 11.4C26.6659 11.4 28.7432 12.4009 30.2747 14.1825C31.8063 15.9641 32.6667 18.3804 32.6667 20.9C32.6667 23.4196 31.8063 25.8359 30.2747 27.6175C28.7432 29.3991 26.6659 30.4 24.5 30.4C22.3341 30.4 20.2568 29.3991 18.7253 27.6175C17.1937 25.8359 16.3333 23.4196 16.3333 20.9Z" fill="#014880"/>
</svg>
