<svg width="29" height="28" viewBox="0 0 29 28" fill="none" xmlns="http://www.w3.org/2000/svg">
<path d="M28.2198 12.8981L22.3695 17.7722L24.2204 25.3037C24.3055 25.6194 24.3172 25.9504 24.2545 26.2714C24.1919 26.5923 24.0567 26.8946 23.8592 27.155C23.6617 27.4154 23.4072 27.6269 23.1153 27.7734C22.8234 27.9199 22.5018 27.9974 22.1753 28C21.7755 27.9982 21.3846 27.8812 21.0493 27.663L14.5129 23.5278H14.4871L8.41668 27.3778C8.02454 27.6256 7.56749 27.7505 7.10403 27.7367C6.64057 27.7228 6.19178 27.5708 5.81509 27.3C5.42702 27.0164 5.13309 26.6224 4.97151 26.1693C4.80993 25.7162 4.78818 25.2249 4.90907 24.7593L6.6564 17.8759L0.780179 12.8981C0.446795 12.6191 0.204501 12.2465 0.0845384 11.8283C-0.0354241 11.4101 -0.0275549 10.9655 0.107131 10.5519C0.238289 10.1444 0.488499 9.78578 0.825395 9.52232C1.16229 9.25887 1.57037 9.10272 1.99684 9.07407L9.63335 8.58148L12.5326 1.34815C12.6881 0.952004 12.9588 0.611727 13.3095 0.371368C13.6603 0.131009 14.075 0.00163707 14.5 0C14.925 0.00163707 15.3397 0.131009 15.6905 0.371368C16.0412 0.611727 16.3119 0.952004 16.4674 1.34815L19.3149 8.54259L27.0032 9.07407C27.4302 9.10097 27.8391 9.25647 28.1763 9.52018C28.5135 9.78388 28.7633 10.1435 28.8929 10.5519C29.0276 10.9655 29.0354 11.4101 28.9155 11.8283C28.7955 12.2465 28.5532 12.6191 28.2198 12.8981V12.8981Z" fill="white"/>
</svg>
