<svg width="23" height="25" viewBox="0 0 23 25" fill="none" xmlns="http://www.w3.org/2000/svg">
<path d="M19.1667 17.6707C18.1956 17.6707 17.3267 18.0472 16.6622 18.6371L7.55167 13.4287C7.61556 13.1401 7.66667 12.8514 7.66667 12.5502C7.66667 12.249 7.61556 11.9603 7.55167 11.6717L16.56 6.51356C17.25 7.14107 18.1572 7.53012 19.1667 7.53012C21.2878 7.53012 23 5.84839 23 3.76506C23 1.68173 21.2878 0 19.1667 0C17.0456 0 15.3333 1.68173 15.3333 3.76506C15.3333 4.06627 15.3844 4.35492 15.4483 4.64357L6.44 9.80171C5.75 9.1742 4.84278 8.78514 3.83333 8.78514C1.71222 8.78514 0 10.4669 0 12.5502C0 14.6335 1.71222 16.3153 3.83333 16.3153C4.84278 16.3153 5.75 15.9262 6.44 15.2987L15.5378 20.5196C15.4739 20.7831 15.4356 21.0592 15.4356 21.3353C15.4356 23.3559 17.1094 25 19.1667 25C21.2239 25 22.8978 23.3559 22.8978 21.3353C22.8978 19.3148 21.2239 17.6707 19.1667 17.6707Z" fill="white"/>
</svg>
