<svg width="28" height="23" viewBox="0 0 28 23" fill="none" xmlns="http://www.w3.org/2000/svg">
<path d="M11.4286 21.275C11.4286 21.3229 11.4345 21.4427 11.4464 21.6344C11.4583 21.826 11.4613 21.9848 11.4554 22.1105C11.4494 22.2363 11.4315 22.3771 11.4018 22.5328C11.372 22.6885 11.3125 22.8053 11.2232 22.8832C11.1339 22.9611 11.0119 23 10.8571 23H5.14286C3.72619 23 2.51488 22.4939 1.50893 21.4816C0.502976 20.4694 0 19.2505 0 17.825V5.175C0 3.74948 0.502976 2.5306 1.50893 1.51836C2.51488 0.50612 3.72619 0 5.14286 0H10.8571C11.0119 0 11.1458 0.056901 11.2589 0.170703C11.372 0.284505 11.4286 0.419271 11.4286 0.575C11.4286 0.622917 11.4345 0.742708 11.4464 0.934375C11.4583 1.12604 11.4613 1.28477 11.4554 1.41055C11.4494 1.53633 11.4315 1.67708 11.4018 1.83281C11.372 1.98854 11.3125 2.10534 11.2232 2.1832C11.1339 2.26107 11.0119 2.3 10.8571 2.3H5.14286C4.35714 2.3 3.68452 2.58151 3.125 3.14453C2.56548 3.70755 2.28571 4.38438 2.28571 5.175V17.825C2.28571 18.6156 2.56548 19.2924 3.125 19.8555C3.68452 20.4185 4.35714 20.7 5.14286 20.7H10.7143L10.9196 20.718L11.125 20.7719L11.2679 20.8707L11.3929 21.0324L11.4286 21.275ZM28 11.5C28 11.8115 27.8869 12.081 27.6607 12.3086L17.9464 22.0836C17.7202 22.3112 17.4524 22.425 17.1429 22.425C16.8333 22.425 16.5655 22.3112 16.3393 22.0836C16.1131 21.856 16 21.5865 16 21.275V16.1H8C7.69048 16.1 7.42262 15.9862 7.19643 15.7586C6.97024 15.531 6.85714 15.2615 6.85714 14.95V8.05C6.85714 7.73854 6.97024 7.46901 7.19643 7.24141C7.42262 7.0138 7.69048 6.9 8 6.9H16V1.725C16 1.41354 16.1131 1.14401 16.3393 0.916406C16.5655 0.688802 16.8333 0.575 17.1429 0.575C17.4524 0.575 17.7202 0.688802 17.9464 0.916406L27.6607 10.6914C27.8869 10.919 28 11.1885 28 11.5Z" fill="white"/>
</svg>
