<svg width="19" height="27" viewBox="0 0 19 27" fill="none" xmlns="http://www.w3.org/2000/svg">
<rect x="0.5" y="0.5" width="18" height="25.125" rx="0.5" fill="#014880" stroke="white"/>
<path d="M2.11133 5.27783L16.8891 5.27783" stroke="white"/>
<path d="M2.11133 7.38892L16.8891 7.38892" stroke="white"/>
<path d="M2.11133 11.6111L16.8891 11.6111" stroke="white"/>
<path d="M2.11133 13.7222L16.8891 13.7222" stroke="white"/>
<path d="M2.11133 15.8333L16.8891 15.8333" stroke="white"/>
<path d="M2.11133 9.5L16.8891 9.5" stroke="white"/>
<path d="M11.875 21.6578C11.685 22.6087 10.9688 23.5041 9.96371 23.7042C9.47353 23.8019 8.96505 23.7424 8.51067 23.534C8.05629 23.3256 7.67917 22.979 7.43301 22.5435C7.18685 22.1081 7.0842 21.606 7.13968 21.1088C7.19515 20.6116 7.40592 20.1445 7.74198 19.7742C8.43126 19.0142 9.59513 18.805 10.5451 19.1854" stroke="white" stroke-linecap="round" stroke-linejoin="round"/>
<path d="M8.64453 21.2842L9.59448 22.2351L11.8743 19.7627" stroke="white" stroke-linecap="round" stroke-linejoin="round"/>
</svg>
