<svg width="158" height="219" viewBox="0 0 158 219" fill="none" xmlns="http://www.w3.org/2000/svg">
<path d="M143.11 70.88L143.023 66.1999C143.023 66.1999 142.766 62.6434 139.68 60.5636C139.68 60.5636 130.321 54.8053 129.563 32.4379C129.563 32.4379 128.298 1.35625 92.1008 2.02631L75.2383 2.33902" stroke="#202730" stroke-width="3.15708" stroke-linecap="round" stroke-linejoin="round"/>
<path d="M17.5028 73.2072L17.416 68.527C17.416 68.527 17.5414 64.9654 20.5464 62.7713C20.5464 62.7713 29.6851 56.6703 29.6155 34.2892C29.6155 34.2892 29.7281 3.18173 65.9246 2.50995L82.7845 2.19897" stroke="#202730" stroke-width="3.15708" stroke-linecap="round" stroke-linejoin="round"/>
<path d="M57.4414 35.4523C57.4414 35.4523 58.2575 34.729 59.8751 33.7049C60.6844 33.1998 61.6852 32.6028 62.8878 32.0075C64.0922 31.4302 65.4805 30.8013 67.0663 30.2876C68.6461 29.7662 70.4072 29.2911 72.3289 29.0334C74.2455 28.7628 76.3236 28.6434 78.4678 28.8839C80.6051 29.1013 82.8327 29.5789 84.9356 30.4929L85.7337 30.8142C85.9931 30.9379 86.2431 31.0754 86.5 31.206C87.0094 31.4748 87.5309 31.7317 88.0274 32.0272C88.9766 32.6818 89.9886 33.2711 90.8477 34.0443C91.285 34.4188 91.7385 34.7771 92.1586 35.1697L93.3596 36.3955L93.9566 37.0089C94.1482 37.2194 94.3131 37.4487 94.4927 37.6669C94.8432 38.1093 95.1928 38.5483 95.5399 38.9873C95.905 39.4143 96.1842 39.8928 96.4969 40.3498C96.7924 40.8111 97.0888 41.2707 97.3826 41.7277L97.6051 42.0696L97.7966 42.4244C97.9229 42.6615 98.0492 42.8978 98.1763 43.1323C98.4246 43.603 98.6712 44.0712 98.916 44.5334C99.172 44.9922 99.373 45.4698 99.5723 45.9388C99.7742 46.4113 99.9718 46.8761 100.168 47.3365C100.357 47.8004 100.569 48.2489 100.727 48.7084C100.883 49.1706 101.038 49.6251 101.189 50.0743C101.339 50.5236 101.486 50.9669 101.629 51.4025C101.771 51.8389 101.926 52.2658 102.022 52.6996C102.241 53.5587 102.449 54.3877 102.65 55.1866C102.746 55.5835 102.842 55.9735 102.935 56.3541C103.005 56.7407 103.075 57.1169 103.143 57.4846C103.268 58.2191 103.39 58.9149 103.501 59.5695C103.75 60.8719 103.836 62.0316 103.932 62.9766C104.032 63.9215 104.08 64.6681 104.125 65.1724C104.159 65.6792 104.177 65.9481 104.177 65.9481C104.177 65.9481 104.088 65.6912 103.917 65.2101C103.756 64.7291 103.503 64.0264 103.221 63.1278C102.93 62.2301 102.598 61.1382 102.135 59.9123C101.915 59.2981 101.683 58.6461 101.438 57.958C101.319 57.6135 101.195 57.2604 101.069 56.8987C100.925 56.5439 100.779 56.1823 100.626 55.8112C100.333 55.0724 100.028 54.3018 99.7115 53.5054C99.4014 52.7074 99.0019 51.9196 98.6351 51.0932C98.4487 50.68 98.2622 50.2633 98.0707 49.8407C97.8843 49.4189 97.6429 49.016 97.4281 48.5968C97.2116 48.1784 96.9891 47.7566 96.7666 47.3322C96.5493 46.9044 96.3302 46.4714 96.0613 46.0668C95.8071 45.6528 95.5528 45.237 95.295 44.8152L94.9136 44.1829L94.7203 43.8642L94.5039 43.5635C94.2135 43.1623 93.9248 42.7577 93.6319 42.3531C93.3381 41.9485 93.0735 41.519 92.7342 41.1513C92.4138 40.7707 92.0882 40.3876 91.7643 40.0019C91.6011 39.812 91.4456 39.6127 91.2747 39.4297L90.7446 38.8988L89.6837 37.8328C89.3142 37.496 88.9165 37.1962 88.5368 36.8714C87.8023 36.1859 86.9398 35.692 86.1366 35.113C85.7148 34.8604 85.2767 34.637 84.8523 34.3905C84.6384 34.2719 84.4279 34.1439 84.2097 34.0322L83.5397 33.7419C83.0887 33.5589 82.6548 33.3295 82.1961 33.1801C81.7382 33.0254 81.2821 32.8717 80.8276 32.717C80.374 32.5633 79.899 32.4851 79.4402 32.3665C79.2083 32.309 78.9789 32.2531 78.7487 32.1964C78.5142 32.1612 78.2814 32.1226 78.0503 32.0865C77.5847 32.0238 77.1251 31.9138 76.6612 31.8872C76.1973 31.8485 75.7368 31.809 75.2824 31.7695C74.8245 31.7403 74.3692 31.7523 73.9191 31.7386C73.4698 31.7197 73.0239 31.7386 72.5815 31.7618C70.817 31.8107 69.1392 32.0453 67.5964 32.3253C66.0449 32.5933 64.6438 32.9739 63.3973 33.3167C62.1568 33.6809 61.0744 34.0314 60.1947 34.3527C59.3185 34.6869 58.6209 34.9411 58.1561 35.1447C57.6888 35.3432 57.4414 35.4523 57.4414 35.4523Z" fill="#BABABA"/>
<path d="M58.7109 29.9387C58.7109 29.9387 59.6009 29.2154 61.3328 28.1957C62.2021 27.6983 63.2682 27.0883 64.5508 26.5153C65.1865 26.2138 65.8789 25.9295 66.61 25.6228C67.3479 25.341 68.1297 25.0489 68.9647 24.7946C69.7911 24.5146 70.6742 24.2895 71.5891 24.043C72.0453 23.9175 72.5212 23.8419 73.0023 23.7388C73.4808 23.6392 73.9704 23.5439 74.473 23.4811C76.472 23.1504 78.6343 23.0585 80.8747 23.1667C81.4348 23.2114 82.0009 23.2552 82.5688 23.3016C83.1375 23.3935 83.7079 23.4863 84.2809 23.5782C84.8582 23.6572 85.426 23.8101 85.9973 23.9579L86.8589 24.183L87.291 24.2981L87.7102 24.4484C88.2721 24.6538 88.8348 24.8591 89.4035 25.0635C89.9661 25.2765 90.4996 25.5661 91.0477 25.8255L91.8638 26.2224C92.1353 26.3616 92.3861 26.5316 92.6481 26.6863L94.2022 27.6398C96.1557 29.0702 98.0293 30.6294 99.5361 32.4471C99.9192 32.8921 100.31 33.3311 100.685 33.7796C101.018 34.2538 101.353 34.7245 101.684 35.191C102.008 35.6635 102.357 36.1162 102.654 36.5947C102.935 37.0801 103.215 37.5637 103.491 38.0422C103.766 38.5216 104.036 38.9949 104.306 39.4657C104.536 39.9553 104.761 40.4364 104.987 40.9183C105.419 41.8788 105.897 42.7945 106.21 43.7472C106.55 44.6828 106.883 45.5951 107.202 46.4765C107.47 47.3733 107.698 48.2461 107.935 49.0768C108.152 49.9144 108.417 50.6979 108.545 51.4771C108.694 52.2468 108.835 52.9778 108.967 53.6642C109.09 54.3515 109.242 54.9855 109.316 55.5851C109.385 56.1847 109.45 56.7362 109.511 57.2345C109.635 58.225 109.696 59.0093 109.753 59.5402C109.799 60.072 109.823 60.3537 109.823 60.3537C109.823 60.3537 109.725 60.0866 109.537 59.584C109.361 59.0789 109.081 58.3453 108.769 57.4054C108.609 56.9364 108.433 56.4201 108.243 55.8548C108.03 55.2982 107.802 54.6994 107.558 54.0534C107.058 52.7768 106.551 51.3216 105.861 49.7942C105.526 49.0279 105.194 48.2238 104.823 47.4077C104.422 46.6053 104.01 45.7772 103.587 44.9259C103.195 44.0616 102.678 43.2404 102.192 42.3805C101.947 41.9509 101.7 41.5188 101.453 41.0807C101.173 40.6649 100.891 40.2449 100.609 39.8213C100.326 39.4004 100.044 38.9743 99.7551 38.5439C99.4648 38.1178 99.1237 37.7295 98.8119 37.3163C98.4914 36.9091 98.1684 36.4976 97.8463 36.0861C97.4932 35.703 97.1401 35.3181 96.7845 34.9333C95.3859 33.362 93.7434 32.0254 92.0476 30.7926L90.7161 29.9628C90.4919 29.8262 90.278 29.6733 90.0452 29.5538L89.345 29.2068L88.6466 28.858C88.4112 28.7446 88.1905 28.6054 87.9448 28.5204C87.4611 28.3288 86.98 28.1381 86.4998 27.9457C84.5515 27.2799 82.5653 26.7439 80.5723 26.5325C78.5887 26.31 76.6301 26.2087 74.7642 26.3323C72.9 26.4277 71.1192 26.6184 69.4887 26.9165C66.22 27.4809 63.5234 28.2824 61.6446 28.8864C60.7125 29.205 59.9695 29.4481 59.4746 29.6449C58.9772 29.8365 58.7109 29.9387 58.7109 29.9387Z" fill="#BABABA"/>
<rect x="61.0078" y="115.066" width="32.9692" height="23.976" transform="rotate(-1.06153 61.0078 115.066)" fill="#F6B99D"/>
<g style="mix-blend-mode:multiply">
<path d="M60.9103 122.204V122.211C61.2806 122.633 61.6543 123.052 62.0546 123.449C63.1044 124.494 64.1911 125.499 65.362 126.406C65.4015 126.437 65.4299 126.459 65.4668 126.486C65.8413 126.751 66.2219 127.01 66.6094 127.263C67.1995 127.642 67.7931 128.024 68.4056 128.37C69.2922 128.876 70.1933 129.364 71.1177 129.798C71.4124 129.908 72.2852 130.249 72.5506 130.336C73.444 130.619 74.3357 130.901 75.2472 131.121C76.1844 131.347 77.1225 131.571 78.0709 131.737C77.8227 131.695 80.5691 132.101 79.9119 132.055C82.136 132.261 84.3739 132.388 86.6091 132.303C87.5678 132.267 88.5274 132.231 89.4818 132.139C89.7876 132.108 91.212 131.87 91.3572 131.866C92.266 131.648 93.1629 131.379 94.0477 131.075L93.7471 114.759L60.7832 115.369L60.9086 122.131C61.0048 122.275 61.0289 122.327 60.9103 122.204Z" fill="#D2D1D1"/>
</g>
<rect x="42.0605" y="69.1033" width="72.6071" height="79.4831" transform="rotate(-1.0622 42.0605 69.1033)" fill="#0B0E17"/>
<path d="M122.468 140.053C104.299 138.343 95.2732 133.149 93.7295 132.182L61.4459 132.78C59.9383 133.804 51.1097 139.328 33.0196 141.712C33.0196 141.712 -1.50687 143.643 0.621885 206.27C0.621885 206.27 26.8387 217.514 79.1435 216.446C131.449 215.575 157.235 203.368 157.235 203.368C157.042 140.704 122.468 140.053 122.468 140.053Z" fill="#F6B99D"/>
<path d="M33.0196 141.712C33.0196 141.712 -1.50687 143.643 0.621885 206.27C0.621885 206.27 26.8387 217.514 79.1435 216.446C131.449 215.575 157.235 203.368 157.235 203.368C157.042 140.704 122.468 140.053 122.468 140.053C122.468 140.053 88.7744 138.288 77.9631 152.818C77.9631 152.818 66.962 135.398 33.0196 141.712Z" fill="white"/>
<path d="M113.961 71.0337C114.488 99.4248 98.1256 122.752 77.4119 123.136C56.7008 123.52 39.4861 100.814 38.9595 72.4246C38.4338 44.0335 54.8917 25.9288 75.6045 25.5448C96.3164 25.1608 113.434 42.6435 113.961 71.0337Z" fill="#F6B99D"/>
<g style="mix-blend-mode:soft-light" opacity="0.5">
<path d="M56.0414 48.905C56.0491 48.8397 56.0637 48.7753 56.0723 48.7083C61.2559 42.3882 68.5029 38.7904 76.5738 38.6418C92.7551 38.3412 106.13 51.9985 106.541 74.1786C106.815 88.9604 101.225 101.978 92.676 109.111C92.676 109.111 43.5369 104.174 56.0414 48.905Z" fill="white"/>
</g>
<g style="mix-blend-mode:multiply">
<path d="M71.3625 111.936C58.4388 104.119 51.2192 90.5807 49.1772 75.9027C47.2598 62.1166 50.4925 46.7651 59.0573 35.6772C62.0296 31.8338 65.8593 28.5496 70.1297 26.0798C52.0723 29.2755 38.4802 46.5873 38.9596 72.4244C39.4862 100.814 56.7009 123.52 77.412 123.136C83.4297 123.024 89.0763 120.973 94.052 117.429C86.2131 117.839 78.3131 116.139 71.3625 111.936Z" fill="#E8E8E8"/>
</g>
<path d="M56.262 137.148C51.7304 139.21 44.1243 141.884 32.9883 143.368C32.868 143.385 32.7521 143.413 32.6395 143.457C30.034 144.481 -1.20058 157.99 0.275279 216.778C0.295901 217.606 0.957377 218.277 1.78466 218.3C7.97504 218.473 33.7598 219.048 78.9352 218.125C123.691 217.381 149.03 217.911 155.413 218.079C156.295 218.102 157.025 217.384 157.014 216.501C156.274 158.262 125.545 143.187 122.502 141.836C122.349 141.768 122.186 141.726 122.02 141.709C110.838 140.634 103.147 138.24 98.5544 136.349C97.313 135.838 96.0485 137.018 96.4858 138.287C100.114 148.816 107.865 181.206 79.9781 211.862C79.3638 212.537 78.2943 212.535 77.6792 211.86C71.8737 205.491 46.7273 175.152 58.3959 139.026C58.8108 137.742 57.4887 136.59 56.262 137.148Z" fill="#00386E"/>
<path d="M49.418 163.73C49.4334 163.81 49.4489 163.891 49.4669 163.971C49.6112 164.61 49.7599 165.247 49.9136 165.881C50.0081 165.839 50.0983 165.793 50.1937 165.755C49.9257 165.09 49.6671 164.412 49.418 163.73Z" fill="#00A4B7"/>
<path d="M122.468 140.053C107.601 138.655 98.854 134.921 95.3207 133.083C95.3207 133.083 114.504 173.794 79.0492 211.411C79.0492 211.411 43.454 176.063 59.8861 133.74C56.4215 135.709 47.8206 139.762 33.0199 141.712C33.0199 141.712 27.5751 156.774 39.9044 169.838C39.9044 169.838 45.0871 166.923 47.922 167.674L38.0471 175.212C38.0471 175.212 40.9344 203.661 72.193 216.576L87.8993 216.284C87.8993 216.284 114.541 202.696 118.575 167.976C118.575 167.976 116.027 165.196 108.262 162.932C108.262 162.932 112.967 161.233 118.465 161.937C118.465 161.937 128.54 156.402 122.468 140.053Z" fill="#002F50"/>
<g style="mix-blend-mode:multiply">
<path d="M122.468 140.053C107.601 138.655 98.8538 134.921 95.3205 133.083C95.3205 133.083 114.504 173.794 79.049 211.411C79.049 211.411 78.7028 211.067 78.0989 210.412L78.0929 210.413C73.6576 211.877 68.888 209.445 65.2284 207.111C60.9598 204.386 56.765 201.224 53.2875 197.521C49.8032 193.811 46.037 189.176 45.1943 183.985C44.0509 176.933 46.5791 171.012 52.6458 167.091C53.7523 166.377 54.9756 165.978 56.2178 165.84C54.8132 156.013 55.4618 145.13 59.8859 133.74C56.4214 135.709 47.8204 139.762 33.0197 141.712C33.0197 141.712 32.9398 141.929 32.8281 142.322C36.8099 141.881 40.6945 141.043 44.5311 143.178C52.1304 147.41 51.0497 156.784 46.4253 162.769C44.5045 165.254 41.7082 167.089 38.7299 168.521C39.1027 168.962 39.4936 169.402 39.9042 169.838C39.9042 169.838 45.0869 166.923 47.9218 167.674L38.0469 175.212C38.0469 175.212 40.9342 203.661 72.1929 216.576L87.8991 216.284C87.8991 216.284 114.541 202.696 118.575 167.976C118.575 167.976 116.026 165.196 108.261 162.932C108.261 162.932 112.966 161.233 118.464 161.937C118.464 161.937 128.54 156.402 122.468 140.053Z" fill="#E8E8E8"/>
</g>
<g style="mix-blend-mode:multiply">
<path d="M122.468 140.053C118.292 139.659 114.598 139.082 111.365 138.415C112.127 140.382 112.673 142.405 112.82 144.569C113.149 149.474 111.65 154.976 107.97 158.446C105.715 160.569 103.159 162.055 100.43 163.098C100.419 163.329 100.404 163.563 100.391 163.797C114.736 178.434 98.3343 208.902 79.941 210.446C79.6463 210.769 79.3542 211.091 79.0493 211.411C79.0493 211.411 79.0054 211.367 78.9453 211.302L79.0381 216.448L87.8993 216.284C87.8993 216.284 114.541 202.696 118.576 167.976C118.576 167.976 116.027 165.196 108.262 162.932C108.262 162.932 112.967 161.233 118.465 161.937C118.465 161.937 128.54 156.402 122.468 140.053Z" fill="#E8E8E8"/>
</g>
<rect x="77.9688" y="152.824" width="1.0629" height="57.799" transform="rotate(-1.17556 77.9688 152.824)" fill="#BABABA"/>
<path d="M59.8853 133.74C59.8853 133.74 44.9754 139.429 52.5738 157.923C52.5738 157.923 53.8994 138.145 78.2984 159.661C78.2984 159.661 79.5887 143.02 70.3632 139.666C70.3632 139.666 59.9695 138.295 59.8853 133.74Z" fill="#D6D6D6"/>
<path d="M95.666 133.077C95.666 133.077 109.27 137.954 102.064 154.789C102.064 154.789 94.2958 137.612 78.2984 159.661C78.2984 159.661 75.6336 141.431 85.4123 139.385C85.4123 139.385 95.7502 137.632 95.666 133.077Z" fill="#D6D6D6"/>
<path d="M53.5723 26.3856C53.5723 26.3856 79.4953 61.7858 109.794 70.0843L107.5 125.904C107.5 125.904 108.488 136.332 96.4059 141.788C96.4059 141.788 118.086 147.147 122.081 131.657L119.096 63.6053C119.096 63.6053 112.51 -7.19764 53.5723 26.3856Z" fill="#101427"/>
<path d="M49.0283 142.665L47.7037 71.2363C45.7905 40.3548 71.217 36.733 71.217 36.733L59.0905 23.9983C59.0905 23.9983 16.5344 33.1602 31.4305 129.031C31.4305 129.031 30.6642 143.546 49.0283 142.665Z" fill="#101427"/>
<g style="mix-blend-mode:multiply">
<path d="M53.4986 38.9993C53.4986 38.9993 53.1327 39.19 52.5339 39.6599C51.9351 40.1255 51.113 40.8806 50.2101 41.9484C49.3081 43.0154 48.3632 44.4286 47.4878 46.1432C46.6373 47.8742 45.8642 49.9085 45.2894 52.2056C44.7259 54.5027 44.3264 57.0447 44.1392 59.7602C43.9665 62.474 43.9811 65.3544 44.1538 68.3319C44.3273 71.4563 44.4252 74.5592 44.5017 77.7816C44.579 80.9884 44.6572 84.2469 44.7345 87.5053C44.7732 90.762 44.8109 94.0195 44.8487 97.2273C44.8848 100.435 44.8487 103.593 44.853 106.649C44.8659 109.703 44.7903 112.658 44.7542 115.459C44.7268 118.261 44.6409 120.909 44.5713 123.356C44.4338 128.245 44.2362 132.322 44.0773 135.177C43.9184 138.034 43.7852 139.666 43.7852 139.666C43.7852 139.666 43.5894 138.039 43.3248 135.193C43.061 132.346 42.7105 128.278 42.3944 123.396C42.2338 120.954 42.0491 118.31 41.9176 115.512C41.7785 112.714 41.5938 109.764 41.4941 106.71C41.3842 103.656 41.2295 100.503 41.1479 97.296C41.0646 94.09 40.983 90.8316 40.9014 87.5749C40.8593 84.3173 40.8146 81.0589 40.7742 77.8512C40.7072 74.6597 40.7648 71.4494 40.721 68.4685C40.696 67.6893 40.696 66.9119 40.7132 66.1413C40.7149 65.3742 40.7407 64.6104 40.7845 63.8571C40.8687 62.3494 41.0268 60.877 41.2252 59.4501C41.4202 58.0215 41.6891 56.6401 41.9872 55.3145C42.3283 53.9968 42.6873 52.7296 43.1263 51.5433C43.9588 49.1568 45.0377 47.0813 46.1837 45.3787C47.3237 43.6717 48.5444 42.3488 49.6475 41.3952C50.7402 40.4219 51.7376 39.8377 52.4188 39.4761C53.1035 39.1204 53.4986 38.9993 53.4986 38.9993Z" fill="#BABABA"/>
</g>
<g style="mix-blend-mode:multiply">
<path d="M45.3589 42.6958C45.3589 42.6958 45.0204 42.8745 44.4629 43.3083C43.9054 43.7421 43.1417 44.4431 42.3032 45.4371C41.4648 46.4284 40.5851 47.7436 39.7724 49.3363C38.9821 50.9436 38.2631 52.8353 37.7305 54.9709C37.2039 57.1048 36.8336 59.4681 36.6601 61.9895C36.4994 64.5134 36.514 67.1911 36.6729 69.9589C36.8345 72.8626 36.9272 75.7473 36.9977 78.7403C37.069 81.7212 37.142 84.7511 37.2142 87.7785C37.2502 90.8058 37.2846 93.8331 37.3207 96.8149C37.3533 99.795 37.3198 102.73 37.3241 105.57C37.3361 108.41 37.2657 111.156 37.2322 113.76C37.2064 116.362 37.1265 118.825 37.0612 121.097C36.9341 125.642 36.7511 129.434 36.6025 132.087C36.5398 133.413 36.4504 134.456 36.4066 135.168C36.3568 135.878 36.3293 136.257 36.3293 136.257C36.3293 136.257 36.2907 135.878 36.2151 135.17C36.1464 134.463 36.0175 133.425 35.9049 132.1C35.6575 129.454 35.3328 125.674 35.0373 121.138C34.8895 118.867 34.7177 116.409 34.5957 113.808C34.4652 111.208 34.2934 108.466 34.2023 105.629C34.0984 102.791 33.9566 99.8594 33.8793 96.8776C33.8028 93.8967 33.7272 90.8728 33.6508 87.8429C33.6113 84.8147 33.5726 81.7865 33.5331 78.8047C33.4695 75.8401 33.5245 72.8566 33.4824 70.0844C33.4145 67.179 33.5674 64.3562 33.9532 61.7025C34.1336 60.3761 34.3827 59.0927 34.6593 57.86C34.9763 56.6349 35.3096 55.4589 35.7185 54.355C36.4926 52.1369 37.4942 50.2066 38.5603 48.625C39.6204 47.0392 40.7535 45.8108 41.7818 44.9225C42.7955 44.0179 43.7216 43.475 44.3538 43.1408C44.993 42.8075 45.3589 42.6958 45.3589 42.6958Z" fill="#BABABA"/>
</g>
<path d="M28.6659 61.9292L29.1315 87.1487C23.5468 85.7218 19.3717 80.7315 19.2601 74.7189C19.1492 68.7038 23.137 63.5648 28.6659 61.9292Z" fill="#FCA01F"/>
<g style="mix-blend-mode:multiply">
<path d="M23.2647 79.4651C27.4295 76.6852 28.4354 72.8495 28.7825 68.251L29.1321 87.1486C25.5223 86.226 22.5087 83.8085 20.7949 80.5939C21.6652 80.3431 22.4993 79.9746 23.2647 79.4651Z" fill="#D2D1D1"/>
</g>
<path d="M116.169 63.6612C116.085 59.1159 119.72 55.3635 124.289 55.2793C128.859 55.1943 132.632 58.8083 132.715 63.3545L133.059 81.8689C133.143 86.4142 129.507 90.1666 124.939 90.2517C120.368 90.3367 116.596 86.7201 116.512 82.1765L116.169 63.6612Z" fill="#353E49"/>
<g style="mix-blend-mode:multiply">
<path d="M126.145 63.9163C129.807 68.2726 130.385 73.3969 129.471 78.8451C128.683 83.5115 125.304 88.2724 120.467 89.0361C121.766 89.8316 123.298 90.2826 124.939 90.2517C129.507 90.1666 133.143 86.4142 133.059 81.8689L132.715 63.3545C132.632 58.8083 128.859 55.1943 124.29 55.2793C120.718 55.3454 117.725 57.6554 116.625 60.8314C120.115 60.3366 123.772 61.0908 126.145 63.9163Z" fill="#BABABA"/>
</g>
<g style="mix-blend-mode:soft-light" opacity="0.5">
<path d="M119.098 63.6054C119.09 63.1329 119.467 62.742 119.944 62.7343C120.42 62.7249 120.812 63.1003 120.82 63.5753L121.208 84.49C121.218 84.9634 120.84 85.3551 120.364 85.3637C119.887 85.3714 119.494 84.996 119.485 84.5218L119.098 63.6054Z" fill="white"/>
</g>
<path d="M44.1608 64.9953C44.0749 60.4509 40.3054 56.836 35.7343 56.9201C31.1641 57.0052 27.5286 60.7576 27.6128 65.3029L27.9564 83.8191C28.0406 88.3618 31.8118 91.9784 36.3829 91.8925C40.9522 91.8092 44.5869 88.0551 44.5028 83.5115L44.1608 64.9953Z" fill="#353E49"/>
<g style="mix-blend-mode:multiply">
<path d="M34.1966 65.6215C30.7028 70.1075 30.3119 75.2507 31.4304 80.6611C32.3865 85.2966 35.9414 89.9295 40.8054 90.512C39.5365 91.3555 38.0203 91.8632 36.3829 91.8925C31.8118 91.9784 28.0406 88.3617 27.9564 83.819L27.6128 65.3028C27.5286 60.7576 31.1641 57.0052 35.7343 56.9201C39.3046 56.8548 42.3817 59.0523 43.5973 62.1853C40.0949 61.8202 36.4654 62.7093 34.1966 65.6215Z" fill="#BABABA"/>
</g>
<g style="mix-blend-mode:soft-light" opacity="0.5">
<path d="M41.2293 65.0487C41.2215 64.577 40.8272 64.2008 40.3522 64.2094C39.8771 64.2171 39.4974 64.6088 39.506 65.0813L39.8934 85.9977C39.902 86.4702 40.2955 86.8473 40.7705 86.8387C41.2456 86.8293 41.6262 86.4393 41.6167 85.9659L41.2293 65.0487Z" fill="white"/>
</g>
<path d="M131.537 60.0222L132.004 85.2425C137.533 83.6069 141.519 78.4688 141.408 72.4545C141.297 66.4394 137.123 61.4517 131.537 60.0222Z" fill="#FCA01F"/>
<g style="mix-blend-mode:multiply">
<path d="M137.582 77.346C133.318 74.7216 132.169 70.9262 131.654 66.344L132.004 85.2425C135.579 84.1867 138.499 81.6585 140.097 78.382C139.216 78.1638 138.367 77.8288 137.582 77.346Z" fill="#D2D1D1"/>
</g>
<path d="M145.334 72.3814C145.367 74.1588 143.946 75.6278 142.158 75.6604C140.37 75.6948 138.894 74.2782 138.862 72.5017C138.828 70.7226 140.249 69.2544 142.038 69.2218C143.826 69.1883 145.301 70.6032 145.334 72.3814Z" fill="#B35F00"/>
<path d="M136.006 79.4146C136.006 79.4146 141.562 122.558 96.0449 122.173" stroke="#202730" stroke-width="3.60245" stroke-linecap="round" stroke-linejoin="round"/>
<path d="M97.6891 122.313C97.7278 124.397 96.0595 126.117 93.9686 126.155L88.8795 126.248C86.7842 126.288 85.0558 124.631 85.0163 122.549C84.9776 120.467 86.6442 118.745 88.7386 118.706L93.8285 118.612C95.9203 118.574 97.6505 120.23 97.6891 122.313Z" fill="#1A2027"/>
<path d="M15.3365 74.7903C15.3683 76.5694 16.8442 77.9843 18.631 77.9508C20.4213 77.9173 21.843 76.4483 21.8095 74.6709C21.776 72.8935 20.3019 71.4787 18.5125 71.5113C16.7248 71.5439 15.303 73.0129 15.3365 74.7903Z" fill="#B35F00"/>
</svg>
