<svg width="91" height="91" viewBox="0 0 91 91" fill="none" xmlns="http://www.w3.org/2000/svg">
<path d="M10 1.5H81C85.6944 1.5 89.5 5.30558 89.5 10V81C89.5 85.6944 85.6944 89.5 81 89.5H10C5.30558 89.5 1.5 85.6944 1.5 81V10C1.5 5.30558 5.30558 1.5 10 1.5Z" stroke="#004980" stroke-width="3"/>
<path d="M58.4673 13.4343C64.5935 13.4343 70.7197 13.4318 76.8459 13.4402C77.3123 13.4408 77.7981 13.4519 78.2417 13.5759C79.3128 13.876 79.9402 14.7769 79.8857 15.8745C79.8304 16.9827 79.2485 17.723 78.1807 18.0037C77.6968 18.1303 77.172 18.1382 76.6654 18.1382C64.4916 18.1453 52.3171 18.1439 40.1433 18.1414C39.7516 18.1414 39.3535 18.1518 38.969 18.0907C37.7317 17.8952 36.875 16.9138 36.8918 15.7538C36.9081 14.608 37.8161 13.6207 39.03 13.4662C39.4171 13.4168 39.814 13.4357 40.2063 13.4357C46.2935 13.4343 52.3801 13.4343 58.4673 13.4343Z" fill="#004880"/>
<path d="M58.4921 37.1668C64.539 37.1668 70.586 37.1661 76.6329 37.168C77.0642 37.168 77.5007 37.1506 77.9261 37.2077C79.1407 37.3687 79.9403 38.3638 79.8877 39.5986C79.8383 40.7534 78.979 41.6705 77.8183 41.7868C77.5065 41.8179 77.1902 41.8037 76.8765 41.8037C64.5865 41.8044 52.2964 41.8044 40.0063 41.803C39.614 41.803 39.2146 41.827 38.8307 41.7653C37.7187 41.5861 36.8666 40.5378 36.8919 39.431C36.9166 38.3632 37.7434 37.3922 38.8236 37.22C39.2464 37.1525 39.6848 37.1688 40.1161 37.1688C46.2416 37.1661 52.3665 37.1668 58.4921 37.1668Z" fill="#004880"/>
<path d="M58.3588 65.3615C52.2728 65.3615 46.1869 65.3621 40.1016 65.3609C39.7087 65.3609 39.3118 65.3836 38.9254 65.3336C37.7913 65.1868 36.9164 64.2022 36.8904 63.0843C36.8651 61.9756 37.7121 60.9512 38.8442 60.7747C39.2677 60.709 39.7054 60.7239 40.1367 60.7239C52.2683 60.7221 64.4005 60.7227 76.5328 60.7227C76.7289 60.7227 76.9257 60.7215 77.1219 60.7239C78.9028 60.7481 79.8998 61.5872 79.8927 63.0551C79.8855 64.5062 78.8639 65.3577 77.0868 65.3589C70.8437 65.3648 64.6012 65.3609 58.3588 65.3615Z" fill="#004880"/>
<path d="M20.1812 60.7247C21.2406 60.7239 22.3006 60.7059 23.3593 60.7271C26.5205 60.7902 29.0464 63.2122 29.1497 66.3715C29.2231 68.6058 29.2192 70.8453 29.1523 73.0796C29.0568 76.2869 26.4984 78.7349 23.2775 78.7701C21.1984 78.7928 19.118 78.794 17.0395 78.7693C13.9511 78.7323 11.3901 76.5285 11.1563 73.4628C10.9718 71.0453 10.9549 68.5948 11.1251 66.1773C11.3524 62.9583 13.8654 60.7889 17.1214 60.7278C18.1411 60.709 19.1615 60.7247 20.1812 60.7247ZM20.2319 63.7168C19.1349 63.7168 18.0372 63.7 16.9402 63.7201C15.1241 63.754 14.1012 64.7613 14.0797 66.5669C14.0563 68.6038 14.059 70.642 14.0817 72.6795C14.1031 74.5722 15.0391 75.6659 16.9038 75.7471C19.1329 75.844 21.3705 75.8322 23.6009 75.7557C25.1175 75.7037 26.0379 74.8145 26.0911 73.3096C26.1762 70.8843 26.1671 68.452 26.0918 66.0252C26.0463 64.575 25.1006 63.7618 23.6406 63.724C22.5052 63.6949 21.3679 63.7182 20.2319 63.7168Z" fill="#004880"/>
<path d="M20.1514 55.0524C19.1719 55.0524 18.1912 55.0751 17.2124 55.0486C13.7849 54.9544 11.2583 52.5882 11.081 49.1692C10.9712 47.0589 10.9738 44.933 11.0842 42.8221C11.2583 39.5019 13.6446 37.2578 16.987 37.1837C19.181 37.1349 21.3783 37.1324 23.5717 37.1863C26.7537 37.2649 29.0971 39.6402 29.1595 42.8318C29.2017 44.948 29.2101 47.0667 29.1562 49.1822C29.0698 52.5668 26.4633 55.0629 23.0911 55.0635C22.111 55.0635 21.1315 55.0635 20.1514 55.0635V55.0524ZM20.2579 40.1072V40.1591C19.1596 40.1591 18.0613 40.1591 16.9629 40.1591C16.885 40.1591 16.8064 40.1579 16.7278 40.1618C15.0599 40.2514 14.1064 41.184 14.0843 42.8293C14.0551 44.9077 14.0544 46.9875 14.0804 49.0652C14.1051 51.006 15.1852 52.1555 17.1286 52.2154C19.2057 52.2797 21.2867 52.2719 23.3639 52.2206C25.0351 52.1797 26.021 51.2775 26.0879 49.5945C26.1828 47.2063 26.1776 44.8102 26.1029 42.4208C26.0561 40.9035 25.0617 40.0974 23.5509 40.1059C22.4533 40.1117 21.3556 40.1072 20.2579 40.1072Z" fill="#004880"/>
<path d="M25.4695 13.8401C24.1172 15.1743 23.2605 16.5928 21.2399 16.3564C19.8071 16.1882 18.3385 16.3057 16.8869 16.3317C15.1533 16.3635 14.1057 17.3975 14.081 19.1279C14.0518 21.2082 14.0524 23.2892 14.0797 25.369C14.105 27.2513 15.1254 28.3016 16.9817 28.3333C19.14 28.3703 21.2997 28.3665 23.458 28.338C25.0655 28.3165 25.893 27.5527 26.1158 25.9438C26.1853 25.4411 26.2652 24.9111 26.1808 24.4213C25.7897 22.1324 27.5714 21.2653 28.9957 20.0814C28.9509 22.8749 29.7979 25.7106 28.3547 28.3516C27.294 30.2929 25.5865 31.3244 23.3703 31.3808C21.2912 31.4335 19.2089 31.4296 17.1298 31.3841C13.968 31.3152 11.3855 29.001 11.1472 25.847C10.9763 23.5834 10.9854 21.2933 11.1069 19.0252C11.266 16.0427 13.3055 13.8012 16.2848 13.5433C18.8945 13.3179 21.538 13.4738 24.1666 13.4887C24.4966 13.4908 24.8252 13.6602 25.4695 13.8401Z" fill="#004880"/>
<path d="M49.0501 68.5727C52.1905 68.5727 55.3309 68.5611 58.4706 68.5779C59.8989 68.5857 60.8329 69.2826 61.1031 70.4648C61.4538 72.0009 60.312 73.268 58.4823 73.2824C54.871 73.3096 51.2604 73.2928 47.6491 73.2934C44.9802 73.2934 42.3107 73.3037 39.6419 73.2881C38.0045 73.2785 36.9334 72.3678 36.8925 71.0019C36.8503 69.6042 37.9649 68.5883 39.6302 68.5779C42.7699 68.5584 45.9103 68.5727 49.0501 68.5727Z" fill="#004880"/>
<path d="M48.9638 49.7347C45.824 49.7361 42.6836 49.7393 39.5439 49.7341C38.5391 49.7321 37.5486 49.4509 37.2284 48.4591C37.003 47.7616 36.988 46.7457 37.3531 46.1767C37.7259 45.596 38.6742 45.0752 39.3776 45.0661C45.8136 44.9829 52.2509 45.0018 58.6882 45.029C60.112 45.0356 61.146 46.0825 61.1694 47.3581C61.1928 48.6877 60.1483 49.7081 58.6194 49.723C55.4011 49.7556 52.1821 49.7328 48.9638 49.7347Z" fill="#004880"/>
<path d="M49.0922 21.2032C52.3099 21.2032 55.5276 21.1805 58.7446 21.2135C60.0956 21.2272 61.1231 22.2378 61.1686 23.4595C61.2147 24.7007 60.2697 25.7127 58.9044 25.8582C58.516 25.8997 58.1204 25.8907 57.7288 25.8907C53.8441 25.8926 49.9593 25.892 46.0752 25.8914C44.0345 25.8914 41.9944 25.8977 39.9536 25.8887C38.0128 25.8803 36.9028 25.0295 36.8905 23.5622C36.8788 22.0878 38.0031 21.2024 39.9107 21.2C42.9712 21.1953 46.0317 21.1985 49.0922 21.1985V21.2032Z" fill="#004880"/>
<path d="M20.2233 25.4307C19.7823 25.1702 19.4037 25.0266 19.1315 24.77C18.4184 24.0978 17.7422 23.3854 17.0706 22.6715C16.4562 22.0194 16.4477 21.3315 17.0868 20.6976C17.689 20.1001 18.3235 20.1553 18.9802 20.6671C20.3279 21.718 20.3357 21.7082 21.512 20.532C23.7599 18.2847 25.9858 16.014 28.2753 13.8096C28.7125 13.3887 29.4146 12.9711 29.9706 13.0016C31.1462 13.0652 31.5028 14.4623 30.6045 15.4015C29.0307 17.0454 27.4011 18.6367 25.7936 20.2482C24.3516 21.6926 22.9195 23.147 21.4568 24.5694C21.108 24.9078 20.652 25.1363 20.2233 25.4307Z" fill="#004880"/>
<path d="M10 1.5H81C85.6944 1.5 89.5 5.30558 89.5 10V81C89.5 85.6944 85.6944 89.5 81 89.5H10C5.30558 89.5 1.5 85.6944 1.5 81V10C1.5 5.30558 5.30558 1.5 10 1.5Z" stroke="#004980" stroke-width="3"/>
<path d="M58.4673 13.4343C64.5935 13.4343 70.7197 13.4318 76.8459 13.4402C77.3123 13.4408 77.7981 13.4519 78.2417 13.5759C79.3128 13.876 79.9402 14.7769 79.8857 15.8745C79.8304 16.9827 79.2485 17.723 78.1807 18.0037C77.6968 18.1303 77.172 18.1382 76.6654 18.1382C64.4916 18.1453 52.3171 18.1439 40.1433 18.1414C39.7516 18.1414 39.3535 18.1518 38.969 18.0907C37.7317 17.8952 36.875 16.9138 36.8918 15.7538C36.9081 14.608 37.8161 13.6207 39.03 13.4662C39.4171 13.4168 39.814 13.4357 40.2063 13.4357C46.2935 13.4343 52.3801 13.4343 58.4673 13.4343Z" fill="#004880"/>
<path d="M58.4921 37.1668C64.539 37.1668 70.586 37.1661 76.6329 37.168C77.0642 37.168 77.5007 37.1506 77.9261 37.2077C79.1407 37.3687 79.9403 38.3638 79.8877 39.5986C79.8383 40.7534 78.979 41.6705 77.8183 41.7868C77.5065 41.8179 77.1902 41.8037 76.8765 41.8037C64.5865 41.8044 52.2964 41.8044 40.0063 41.803C39.614 41.803 39.2146 41.827 38.8307 41.7653C37.7187 41.5861 36.8666 40.5378 36.8919 39.431C36.9166 38.3632 37.7434 37.3922 38.8236 37.22C39.2464 37.1525 39.6848 37.1688 40.1161 37.1688C46.2416 37.1661 52.3665 37.1668 58.4921 37.1668Z" fill="#004880"/>
<path d="M58.3588 65.3615C52.2728 65.3615 46.1869 65.3621 40.1016 65.3609C39.7087 65.3609 39.3118 65.3836 38.9254 65.3336C37.7913 65.1868 36.9164 64.2022 36.8904 63.0843C36.8651 61.9756 37.7121 60.9512 38.8442 60.7747C39.2677 60.709 39.7054 60.7239 40.1367 60.7239C52.2683 60.7221 64.4005 60.7227 76.5328 60.7227C76.7289 60.7227 76.9257 60.7215 77.1219 60.7239C78.9028 60.7481 79.8998 61.5872 79.8927 63.0551C79.8855 64.5062 78.8639 65.3577 77.0868 65.3589C70.8437 65.3648 64.6012 65.3609 58.3588 65.3615Z" fill="#004880"/>
<path d="M20.1812 60.7247C21.2406 60.7239 22.3006 60.7059 23.3593 60.7271C26.5205 60.7902 29.0464 63.2122 29.1497 66.3715C29.2231 68.6058 29.2192 70.8453 29.1523 73.0796C29.0568 76.2869 26.4984 78.7349 23.2775 78.7701C21.1984 78.7928 19.118 78.794 17.0395 78.7693C13.9511 78.7323 11.3901 76.5285 11.1563 73.4628C10.9718 71.0453 10.9549 68.5948 11.1251 66.1773C11.3524 62.9583 13.8654 60.7889 17.1214 60.7278C18.1411 60.709 19.1615 60.7247 20.1812 60.7247ZM20.2319 63.7168C19.1349 63.7168 18.0372 63.7 16.9402 63.7201C15.1241 63.754 14.1012 64.7613 14.0797 66.5669C14.0563 68.6038 14.059 70.642 14.0817 72.6795C14.1031 74.5722 15.0391 75.6659 16.9038 75.7471C19.1329 75.844 21.3705 75.8322 23.6009 75.7557C25.1175 75.7037 26.0379 74.8145 26.0911 73.3096C26.1762 70.8843 26.1671 68.452 26.0918 66.0252C26.0463 64.575 25.1006 63.7618 23.6406 63.724C22.5052 63.6949 21.3679 63.7182 20.2319 63.7168Z" fill="#004880"/>
<path d="M20.1514 55.0524C19.1719 55.0524 18.1912 55.0751 17.2124 55.0486C13.7849 54.9544 11.2583 52.5882 11.081 49.1692C10.9712 47.0589 10.9738 44.933 11.0842 42.8221C11.2583 39.5019 13.6446 37.2578 16.987 37.1837C19.181 37.1349 21.3783 37.1324 23.5717 37.1863C26.7537 37.2649 29.0971 39.6402 29.1595 42.8318C29.2017 44.948 29.2101 47.0667 29.1562 49.1822C29.0698 52.5668 26.4633 55.0629 23.0911 55.0635C22.111 55.0635 21.1315 55.0635 20.1514 55.0635V55.0524ZM20.2579 40.1072V40.1591C19.1596 40.1591 18.0613 40.1591 16.9629 40.1591C16.885 40.1591 16.8064 40.1579 16.7278 40.1618C15.0599 40.2514 14.1064 41.184 14.0843 42.8293C14.0551 44.9077 14.0544 46.9875 14.0804 49.0652C14.1051 51.006 15.1852 52.1555 17.1286 52.2154C19.2057 52.2797 21.2867 52.2719 23.3639 52.2206C25.0351 52.1797 26.021 51.2775 26.0879 49.5945C26.1828 47.2063 26.1776 44.8102 26.1029 42.4208C26.0561 40.9035 25.0617 40.0974 23.5509 40.1059C22.4533 40.1117 21.3556 40.1072 20.2579 40.1072Z" fill="#004880"/>
<path d="M25.4695 13.8401C24.1172 15.1743 23.2605 16.5928 21.2399 16.3564C19.8071 16.1882 18.3385 16.3057 16.8869 16.3317C15.1533 16.3635 14.1057 17.3975 14.081 19.1279C14.0518 21.2082 14.0524 23.2892 14.0797 25.369C14.105 27.2513 15.1254 28.3016 16.9817 28.3333C19.14 28.3703 21.2997 28.3665 23.458 28.338C25.0655 28.3165 25.893 27.5527 26.1158 25.9438C26.1853 25.4411 26.2652 24.9111 26.1808 24.4213C25.7897 22.1324 27.5714 21.2653 28.9957 20.0814C28.9509 22.8749 29.7979 25.7106 28.3547 28.3516C27.294 30.2929 25.5865 31.3244 23.3703 31.3808C21.2912 31.4335 19.2089 31.4296 17.1298 31.3841C13.968 31.3152 11.3855 29.001 11.1472 25.847C10.9763 23.5834 10.9854 21.2933 11.1069 19.0252C11.266 16.0427 13.3055 13.8012 16.2848 13.5433C18.8945 13.3179 21.538 13.4738 24.1666 13.4887C24.4966 13.4908 24.8252 13.6602 25.4695 13.8401Z" fill="#004880"/>
<path d="M49.0501 68.5727C52.1905 68.5727 55.3309 68.5611 58.4706 68.5779C59.8989 68.5857 60.8329 69.2826 61.1031 70.4648C61.4538 72.0009 60.312 73.268 58.4823 73.2824C54.871 73.3096 51.2604 73.2928 47.6491 73.2934C44.9802 73.2934 42.3107 73.3037 39.6419 73.2881C38.0045 73.2785 36.9334 72.3678 36.8925 71.0019C36.8503 69.6042 37.9649 68.5883 39.6302 68.5779C42.7699 68.5584 45.9103 68.5727 49.0501 68.5727Z" fill="#004880"/>
<path d="M48.9638 49.7347C45.824 49.7361 42.6836 49.7393 39.5439 49.7341C38.5391 49.7321 37.5486 49.4509 37.2284 48.4591C37.003 47.7616 36.988 46.7457 37.3531 46.1767C37.7259 45.596 38.6742 45.0752 39.3776 45.0661C45.8136 44.9829 52.2509 45.0018 58.6882 45.029C60.112 45.0356 61.146 46.0825 61.1694 47.3581C61.1928 48.6877 60.1483 49.7081 58.6194 49.723C55.4011 49.7556 52.1821 49.7328 48.9638 49.7347Z" fill="#004880"/>
<path d="M49.0922 21.2032C52.3099 21.2032 55.5276 21.1805 58.7446 21.2135C60.0956 21.2272 61.1231 22.2378 61.1686 23.4595C61.2147 24.7007 60.2697 25.7127 58.9044 25.8582C58.516 25.8997 58.1204 25.8907 57.7288 25.8907C53.8441 25.8926 49.9593 25.892 46.0752 25.8914C44.0345 25.8914 41.9944 25.8977 39.9536 25.8887C38.0128 25.8803 36.9028 25.0295 36.8905 23.5622C36.8788 22.0878 38.0031 21.2024 39.9107 21.2C42.9712 21.1953 46.0317 21.1985 49.0922 21.1985V21.2032Z" fill="#004880"/>
<path d="M20.2233 25.4307C19.7823 25.1702 19.4037 25.0266 19.1315 24.77C18.4184 24.0978 17.7422 23.3854 17.0706 22.6715C16.4562 22.0194 16.4477 21.3315 17.0868 20.6976C17.689 20.1001 18.3235 20.1553 18.9802 20.6671C20.3279 21.718 20.3357 21.7082 21.512 20.532C23.7599 18.2847 25.9858 16.014 28.2753 13.8096C28.7125 13.3887 29.4146 12.9711 29.9706 13.0016C31.1462 13.0652 31.5028 14.4623 30.6045 15.4015C29.0307 17.0454 27.4011 18.6367 25.7936 20.2482C24.3516 21.6926 22.9195 23.147 21.4568 24.5694C21.108 24.9078 20.652 25.1363 20.2233 25.4307Z" fill="#004880"/>
</svg>
