<svg width="91" height="92" viewBox="0 0 91 92" fill="none" xmlns="http://www.w3.org/2000/svg">
<path d="M10 1.94336H81C85.6944 1.94336 89.5 5.74894 89.5 10.4434V81.4434C89.5 86.1378 85.6944 89.9434 81 89.9434H10C5.30558 89.9434 1.5 86.1378 1.5 81.4434V10.4434C1.5 5.74894 5.30558 1.94336 10 1.94336Z" stroke="#004980" stroke-width="3"/>
<path d="M52.2051 8.44336H19V83.0907H72.6681V28.9064L52.2051 8.44336Z" fill="#2B8BC1"/>
<path d="M19.0002 38.6499V60.1538C19.0334 60.1531 19.0666 60.1516 19.1003 60.1516H68.5663V38.6477H19.1003C19.0666 38.6477 19.0334 38.6494 19.0002 38.6499Z" fill="#004880"/>
<path d="M52.2048 8.44336L72.6681 28.9065H56.5692C54.1589 28.9065 52.2048 26.9524 52.2048 24.5421V8.44336Z" fill="#004880"/>
<path d="M28.6217 53.839V41.4754H32.7992C33.7692 41.4754 34.562 41.6504 35.1778 42.0006C35.7976 42.3467 36.2564 42.8156 36.5542 43.4072C36.852 43.9988 37.0009 44.6588 37.0009 45.3873C37.0009 46.1157 36.852 46.7778 36.5542 47.3734C36.2604 47.9691 35.8056 48.444 35.1899 48.7982C34.5741 49.1483 33.7853 49.3234 32.8234 49.3234H29.8291V47.9952H32.7751C33.4391 47.9952 33.9724 47.8805 34.3749 47.6511C34.7773 47.4217 35.0691 47.1118 35.2502 46.7214C35.4354 46.327 35.5279 45.8823 35.5279 45.3873C35.5279 44.8923 35.4354 44.4495 35.2502 44.0592C35.0691 43.6688 34.7753 43.3629 34.3688 43.1415C33.9623 42.9162 33.423 42.8035 32.7509 42.8035H30.1188V53.839H28.6217ZM43.228 53.839H39.4127V41.4754H43.3971C44.5964 41.4754 45.6227 41.7229 46.4759 42.2179C47.3291 42.7089 47.9831 43.4152 48.4379 44.3369C48.8927 45.2545 49.1201 46.3532 49.1201 47.633C49.1201 48.9209 48.8907 50.0297 48.4319 50.9594C47.9731 51.885 47.305 52.5974 46.4276 53.0964C45.5502 53.5915 44.4837 53.839 43.228 53.839ZM40.9098 52.5109H43.1314C44.1537 52.5109 45.0009 52.3137 45.673 51.9192C46.3451 51.5248 46.8462 50.9634 47.1762 50.2349C47.5062 49.5065 47.6712 48.6392 47.6712 47.633C47.6712 46.6349 47.5082 45.7757 47.1822 45.0553C46.8562 44.3308 46.3692 43.7754 45.7213 43.3891C45.0733 42.9987 44.2664 42.8035 43.3005 42.8035H40.9098V52.5109ZM51.6314 53.839V41.4754H59.0448V42.8035H53.1286V46.981H58.4894V48.3092H53.1286V53.839H51.6314Z" fill="white"/>
<path d="M10 1.94336H81C85.6944 1.94336 89.5 5.74894 89.5 10.4434V81.4434C89.5 86.1378 85.6944 89.9434 81 89.9434H10C5.30558 89.9434 1.5 86.1378 1.5 81.4434V10.4434C1.5 5.74894 5.30558 1.94336 10 1.94336Z" stroke="#004980" stroke-width="3"/>
<path d="M61.2051 8H28V82.6473H81.6681V28.463L61.2051 8Z" fill="#2B8BC1"/>
<path d="M28.0002 38.2065V59.7104C28.0334 59.7097 28.0666 59.7083 28.1003 59.7083H77.5663V38.2043H28.1003C28.0666 38.2043 28.0334 38.2061 28.0002 38.2065Z" fill="#004880"/>
<path d="M61.2048 8L81.6681 28.4631H65.5692C63.1589 28.4631 61.2048 26.509 61.2048 24.0988V8Z" fill="#004880"/>
<path d="M37.6217 53.3956V41.032H41.7992C42.7692 41.032 43.562 41.2071 44.1778 41.5572C44.7976 41.9033 45.2564 42.3722 45.5542 42.9638C45.852 43.5554 46.0009 44.2155 46.0009 44.9439C46.0009 45.6724 45.852 46.3344 45.5542 46.9301C45.2604 47.5257 44.8056 48.0006 44.1899 48.3548C43.5741 48.7049 42.7853 48.88 41.8234 48.88H38.8291V47.5519H41.7751C42.4391 47.5519 42.9724 47.4372 43.3749 47.2078C43.7773 46.9784 44.0691 46.6685 44.2502 46.2781C44.4354 45.8837 44.5279 45.439 44.5279 44.9439C44.5279 44.4489 44.4354 44.0062 44.2502 43.6158C44.0691 43.2254 43.7753 42.9195 43.3688 42.6982C42.9623 42.4728 42.423 42.3601 41.7509 42.3601H39.1188V53.3956H37.6217ZM52.228 53.3956H48.4127V41.032H52.3971C53.5964 41.032 54.6227 41.2795 55.4759 41.7745C56.3291 42.2655 56.9831 42.9719 57.4379 43.8935C57.8927 44.8111 58.1201 45.9098 58.1201 47.1897C58.1201 48.4775 57.8907 49.5863 57.4319 50.516C56.9731 51.4417 56.305 52.154 55.4276 52.6531C54.5502 53.1481 53.4837 53.3956 52.228 53.3956ZM49.9098 52.0675H52.1314C53.1537 52.0675 54.0009 51.8703 54.673 51.4759C55.3451 51.0815 55.8462 50.52 56.1762 49.7916C56.5062 49.0631 56.6712 48.1958 56.6712 47.1897C56.6712 46.1916 56.5082 45.3323 56.1822 44.6119C55.8562 43.8875 55.3692 43.3321 54.7213 42.9457C54.0733 42.5553 53.2664 42.3601 52.3005 42.3601H49.9098V52.0675ZM60.6314 53.3956V41.032H68.0448V42.3601H62.1286V46.5377H67.4894V47.8658H62.1286V53.3956H60.6314Z" fill="white"/>
</svg>
