<svg width="197" height="200" viewBox="0 0 197 200" fill="none" xmlns="http://www.w3.org/2000/svg">
<path d="M156.585 136.004C155.033 133.306 154.004 130.117 153.681 126.65H156.855H157.922L158.585 132.852C157.945 133.922 157.28 134.973 156.585 136.004Z" fill="#8CDAFE"/>
<path d="M90.9634 10.479L91.189 11.6356L93.4966 11.1827L93.2704 10.0262L90.9634 10.479Z" fill="#7CB7FF"/>
<path d="M116.297 30.687C110.855 29.3029 105.16 28.5674 99.2928 28.5674C94.0905 28.5674 89.0226 29.1458 84.1457 30.2419L84.1611 30.1639C84.2758 30.1471 84.3795 30.1284 84.4712 30.1085C84.7346 30.052 84.8932 29.9851 84.9097 29.9126V29.9104V29.91V29.9082V29.9076L84.9114 29.9056V29.9049V29.9033V29.9027V29.9001L85.6398 24.9331C90.0632 24.1071 94.6273 23.675 99.2911 23.675C104.855 23.675 110.277 24.2898 115.488 25.4552C115.488 25.5172 115.487 25.5791 115.487 25.6412C115.487 27.4043 115.772 29.1002 116.297 30.687Z" fill="#D4E9FF"/>
<path d="M102.265 15.2107C101.279 15.175 100.287 15.1575 99.2923 15.1575H99.1836V14.1025H99.2923C100.301 14.1025 101.304 14.1194 102.302 14.1562L102.265 15.2107Z" fill="#21479B"/>
<path d="M102.752 1.73328C101.605 1.69263 100.451 1.67236 99.2921 1.67236L99.1653 1.67114V0.443359L99.3009 0.444336H99.3475C100.496 0.444336 101.647 0.46521 102.793 0.505249L102.752 1.73328Z" fill="#21479B"/>
<path d="M99.2715 161.088C98.9526 161.088 98.6386 161.085 98.3252 161.08L98.3351 160.276C98.6787 160.282 99.0311 160.284 99.3697 160.284C99.7029 160.284 100.034 160.282 100.367 160.275L100.379 161.078C100.045 161.084 99.709 161.088 99.3719 161.088H99.2715Z" fill="#E7F3FF"/>
<path d="M96.2702 161.016C95.5819 160.984 94.8974 160.943 94.2168 160.888L94.2816 160.087C94.9545 160.141 95.6285 160.184 96.3064 160.214L96.2702 161.016Z" fill="#E7F3FF"/>
<path d="M102.435 161.012L102.395 160.209C103.074 160.174 103.749 160.132 104.422 160.076L104.485 160.878C103.806 160.932 103.12 160.978 102.435 161.012Z" fill="#E7F3FF"/>
<path d="M106.533 160.679L106.441 159.881C107.117 159.805 107.787 159.717 108.454 159.62L108.572 160.415C107.895 160.513 107.216 160.602 106.533 160.679Z" fill="#E7F3FF"/>
<path d="M110.599 160.084L110.458 159.294C111.125 159.174 111.789 159.042 112.449 158.901L112.617 159.688C111.949 159.831 111.276 159.963 110.599 160.084Z" fill="#E7F3FF"/>
<path d="M114.623 159.226L114.428 158.446C115.088 158.283 115.741 158.11 116.392 157.925L116.608 158.697C115.951 158.884 115.289 159.06 114.623 159.226Z" fill="#E7F3FF"/>
<path d="M118.577 158.107L118.333 157.343C118.98 157.136 119.62 156.919 120.258 156.695L120.527 157.451C119.881 157.68 119.232 157.898 118.577 158.107Z" fill="#E7F3FF"/>
<path d="M122.453 156.732L122.16 155.986C122.789 155.739 123.413 155.482 124.031 155.216L124.349 155.954C123.723 156.223 123.09 156.483 122.453 156.732Z" fill="#E7F3FF"/>
<path d="M72.4418 155.148C71.8188 154.857 71.2013 154.558 70.5898 154.245L70.9527 153.53C71.5575 153.837 72.1668 154.133 72.7821 154.421L72.4418 155.148Z" fill="#E7F3FF"/>
<path d="M126.219 155.115L125.877 154.387C126.491 154.101 127.097 153.804 127.697 153.498L128.062 154.213C127.453 154.525 126.839 154.824 126.219 155.115Z" fill="#E7F3FF"/>
<path d="M68.7678 153.284C68.1662 152.954 67.5695 152.613 66.9795 152.265L67.3884 151.572C67.973 151.918 68.5609 152.254 69.1547 152.581L68.7678 153.284Z" fill="#E7F3FF"/>
<path d="M129.875 153.254L129.486 152.55C130.079 152.223 130.665 151.889 131.246 151.544L131.656 152.235C131.068 152.583 130.474 152.923 129.875 153.254Z" fill="#E7F3FF"/>
<path d="M65.2249 151.187C64.6452 150.817 64.0733 150.439 63.5068 150.053L63.9602 149.39C64.519 149.774 65.0833 150.146 65.6563 150.51L65.2249 151.187Z" fill="#E7F3FF"/>
<path d="M133.403 151.159L132.972 150.483C133.544 150.118 134.107 149.747 134.664 149.364L135.118 150.027C134.554 150.414 133.983 150.791 133.403 151.159Z" fill="#E7F3FF"/>
<path d="M61.8272 148.865C61.2733 148.459 60.7261 148.047 60.1865 147.622L60.68 146.991C61.2141 147.41 61.7547 147.817 62.3014 148.217L61.8272 148.865Z" fill="#E7F3FF"/>
<path d="M136.793 148.842L136.318 148.193C136.863 147.793 137.403 147.385 137.935 146.968L138.431 147.599C137.893 148.023 137.346 148.436 136.793 148.842Z" fill="#E7F3FF"/>
<path d="M58.5865 146.329C58.0601 145.89 57.5414 145.442 57.0293 144.986L57.5639 144.387C58.0689 144.837 58.5816 145.28 59.1019 145.714L58.5865 146.329Z" fill="#E7F3FF"/>
<path d="M140.027 146.308L139.512 145.692C140.03 145.257 140.542 144.815 141.047 144.365L141.582 144.963C141.07 145.42 140.552 145.868 140.027 146.308Z" fill="#E7F3FF"/>
<path d="M143.092 143.57L142.538 142.987C143.028 142.521 143.511 142.046 143.987 141.564L144.557 142.127C144.077 142.617 143.589 143.096 143.092 143.57Z" fill="#E7F3FF"/>
<path d="M145.977 140.64L145.387 140.095C145.845 139.598 146.296 139.093 146.74 138.58L147.347 139.106C146.899 139.625 146.442 140.135 145.977 140.64Z" fill="#E7F3FF"/>
<path d="M148.667 137.53L148.043 137.025C148.468 136.498 148.886 135.966 149.296 135.425L149.936 135.911C149.522 136.458 149.098 136.996 148.667 137.53Z" fill="#E7F3FF"/>
<path d="M47.4594 134.286C47.0632 133.728 46.6756 133.163 46.2969 132.592L46.9671 132.151C47.3403 132.713 47.7224 133.271 48.1132 133.822L47.4594 134.286Z" fill="#E7F3FF"/>
<path d="M45.1926 130.862C44.8331 130.281 44.484 129.692 44.1426 129.098L44.8408 128.699C45.1761 129.287 45.5225 129.866 45.876 130.441L45.1926 130.862Z" fill="#E7F3FF"/>
<path d="M43.1538 127.302C42.8322 126.698 42.522 126.09 42.2207 125.473L42.9425 125.123C43.2395 125.729 43.5474 126.33 43.8625 126.926L43.1538 127.302Z" fill="#E7F3FF"/>
<path d="M41.3489 123.619C41.0684 122.995 40.7979 122.367 40.5371 121.735L41.2792 121.43C41.5366 122.054 41.8039 122.674 42.0811 123.289L41.3489 123.619Z" fill="#E7F3FF"/>
<path d="M39.7866 119.822C39.5473 119.182 39.3156 118.536 39.0967 117.884L39.8579 117.628C40.0742 118.271 40.3015 118.908 40.5375 119.541L39.7866 119.822Z" fill="#E7F3FF"/>
<path d="M38.4722 115.926C38.2741 115.271 38.0864 114.612 37.9102 113.948L38.6863 113.742C38.8603 114.397 39.0453 115.049 39.2407 115.693L38.4722 115.926Z" fill="#E7F3FF"/>
<path d="M160.146 115.821L159.377 115.591C159.57 114.944 159.754 114.292 159.927 113.636L160.703 113.842C160.529 114.506 160.341 115.165 160.146 115.821Z" fill="#E7F3FF"/>
<path d="M37.4143 111.952C37.2606 111.286 37.1168 110.616 36.9834 109.942L37.7705 109.787C37.9023 110.451 38.0444 111.114 38.197 111.77L37.4143 111.952Z" fill="#E7F3FF"/>
<path d="M152.656 64.6188C152.299 64.0435 151.935 63.4749 151.561 62.9133L152.229 62.4666C152.608 63.038 152.978 63.6138 153.338 64.1967L152.656 64.6188Z" fill="#E7F3FF"/>
<path d="M150.411 61.2426C150.019 60.6909 149.617 60.1471 149.208 59.6091L149.846 59.1228C150.262 59.6663 150.667 60.2183 151.065 60.7761L150.411 61.2426Z" fill="#E7F3FF"/>
<path d="M50.4762 58.21L49.8516 57.7061C50.283 57.1721 50.7221 56.6456 51.17 56.1265L51.7781 56.6506C51.3357 57.1628 50.9016 57.6843 50.4762 58.21Z" fill="#E7F3FF"/>
<path d="M147.953 58.0164C147.526 57.4905 147.09 56.9734 146.647 56.4635L147.253 55.9365C147.702 56.454 148.143 56.9778 148.577 57.5096L147.953 58.0164Z" fill="#E7F3FF"/>
<path d="M53.1277 55.1342L52.5371 54.5907C53.0015 54.0863 53.4735 53.5884 53.9538 53.0999L54.5268 53.6621C54.0526 54.145 53.586 54.6353 53.1277 55.1342Z" fill="#E7F3FF"/>
<path d="M145.292 54.9526C144.833 54.4565 144.365 53.9675 143.889 53.4866L144.46 52.9224C144.943 53.4097 145.415 53.9042 145.882 54.407L145.292 54.9526Z" fill="#E7F3FF"/>
<path d="M55.9698 52.2363L55.416 51.6562C55.9106 51.1826 56.4139 50.7183 56.9244 50.2593L57.4601 50.8577C56.9562 51.3101 56.4595 51.7683 55.9698 52.2363Z" fill="#E7F3FF"/>
<path d="M142.438 52.0674C141.946 51.6008 141.447 51.1436 140.941 50.6929L141.475 50.0935C141.987 50.5486 142.492 51.0129 142.99 51.4844L142.438 52.0674Z" fill="#E7F3FF"/>
<path d="M58.9932 49.5278L58.4756 48.9128C59.0003 48.4739 59.5311 48.0413 60.0701 47.6182L60.5669 48.2495C60.0355 48.6677 59.5102 49.0938 58.9932 49.5278Z" fill="#E7F3FF"/>
<path d="M139.401 49.369C138.882 48.9365 138.354 48.51 137.82 48.094L138.315 47.4617C138.855 47.8831 139.389 48.3135 139.916 48.7532L139.401 49.369Z" fill="#E7F3FF"/>
<path d="M62.1823 47.0205L61.707 46.3745C62.2586 45.969 62.8157 45.5725 63.3806 45.1836L63.8356 45.8459C63.2774 46.229 62.7268 46.6211 62.1823 47.0205Z" fill="#E7F3FF"/>
<path d="M136.199 46.8711C135.651 46.472 135.098 46.0812 134.536 45.7003L134.99 45.0361C135.558 45.4237 136.118 45.8173 136.672 46.2217L136.199 46.8711Z" fill="#E7F3FF"/>
<path d="M65.5239 44.7266L65.0908 44.0503C65.6666 43.6807 66.2484 43.3213 66.8374 42.9717L67.2474 43.6604C66.6672 44.0073 66.0926 44.3621 65.5239 44.7266Z" fill="#E7F3FF"/>
<path d="M132.839 44.584C132.269 44.2222 131.69 43.8683 131.105 43.5234L131.513 42.8318C132.106 43.1804 132.691 43.5382 133.269 43.906L132.839 44.584Z" fill="#E7F3FF"/>
<path d="M69.0047 42.6519L68.6172 41.95C69.2155 41.6183 69.8187 41.2977 70.4285 40.9849L70.793 41.7006C70.1914 42.0079 69.5948 42.3252 69.0047 42.6519Z" fill="#E7F3FF"/>
<path d="M72.6111 40.8092L72.2686 40.083C72.8866 39.7915 73.5107 39.511 74.1381 39.2393L74.457 39.9758C73.8367 40.2432 73.2214 40.5215 72.6111 40.8092Z" fill="#E7F3FF"/>
<path d="M76.3268 39.2046L76.0332 38.4581C76.6705 38.2062 77.3121 37.9667 77.9593 37.7363L78.2282 38.4921C77.5898 38.7192 76.9559 38.9575 76.3268 39.2046Z" fill="#E7F3FF"/>
<path d="M80.1501 37.8413L79.9053 37.0773C80.5574 36.8682 81.2133 36.6694 81.8741 36.4817L82.0932 37.2534C81.4416 37.4401 80.7939 37.6355 80.1501 37.8413Z" fill="#E7F3FF"/>
<path d="M118.122 37.7413C117.477 37.5388 116.829 37.3472 116.176 37.1649L116.391 36.3916C117.052 36.576 117.711 36.7704 118.363 36.9757L118.122 37.7413Z" fill="#E7F3FF"/>
<path d="M84.0542 36.7303L83.8594 35.951C84.5241 35.7856 85.1904 35.6304 85.8634 35.4849L86.0324 36.2699C85.3688 36.4131 84.7102 36.5669 84.0542 36.7303Z" fill="#E7F3FF"/>
<path d="M114.212 36.6512C113.556 36.4922 112.898 36.3412 112.232 36.2023L112.397 35.4163C113.069 35.5574 113.738 35.7094 114.402 35.8713L114.212 36.6512Z" fill="#E7F3FF"/>
<path d="M88.023 35.8762L87.8809 35.0852C88.5527 34.9644 89.2289 34.8521 89.9084 34.751L90.027 35.5452C89.3557 35.645 88.6882 35.7544 88.023 35.8762Z" fill="#E7F3FF"/>
<path d="M110.24 35.8196C109.573 35.7012 108.906 35.5947 108.233 35.498L108.348 34.7039C109.027 34.8015 109.704 34.9092 110.378 35.0276L110.24 35.8196Z" fill="#E7F3FF"/>
<path d="M92.0379 35.2817L91.9463 34.4838C92.6242 34.4064 93.307 34.3378 93.9926 34.2817L94.0573 35.0815C93.3822 35.1381 92.7081 35.2046 92.0379 35.2817Z" fill="#E7F3FF"/>
<path d="M106.221 35.245C105.549 35.1702 104.877 35.1072 104.2 35.0555L104.262 34.2549C104.947 34.3085 105.63 34.3718 106.308 34.4458L106.221 35.245Z" fill="#E7F3FF"/>
<path d="M96.0842 34.9468L96.043 34.145C96.7247 34.1108 97.4091 34.0862 98.0975 34.0742L98.1128 34.8767C97.435 34.8901 96.7571 34.9121 96.0842 34.9468Z" fill="#E7F3FF"/>
<path d="M102.173 34.9316C101.499 34.9009 100.823 34.8806 100.145 34.8718L100.155 34.0684C100.843 34.0781 101.528 34.0979 102.209 34.1292L102.173 34.9316Z" fill="#E7F3FF"/>
<path d="M111.622 67.0371C111.897 66.8203 112.178 66.6091 112.457 66.3989C112.775 66.533 113.089 66.6719 113.401 66.8149C113.308 66.8101 113.215 66.8074 113.123 66.8074C112.607 66.8074 112.103 66.8867 111.622 67.0371Z" fill="#21479B"/>
<path d="M121.933 145.175V121.209H106.991L106.253 105.03H94.2951L93.5578 121.209H78.6211V145.175H121.933Z" fill="#F8C98F"/>
<path d="M112.212 140.706V121.209H106.991L100.69 127.288L93.558 121.209H88.082V140.706H112.212Z" fill="white"/>
<path d="M79.4232 145.175L83.0898 129.675L83.2083 129.173L83.2226 129.119C84.013 125.656 81.846 122.2 78.382 121.412C74.9146 120.611 71.4676 122.78 70.6767 126.245L66.3613 145.175H79.4232Z" fill="#F8C98F"/>
<path d="M81.2951 145.175L83.5241 128.817L83.5362 128.764C84.3557 125.178 82.1118 121.607 78.5259 120.787C74.9445 119.962 71.3772 122.204 70.5605 125.788L65.7764 145.175H81.2951Z" fill="#BF23FF"/>
<path d="M117.36 129.173L117.479 129.675L121.148 145.175H134.212L129.897 126.245C129.106 122.78 125.654 120.611 122.193 121.412C118.723 122.2 116.56 125.656 117.347 129.119L117.36 129.173Z" fill="#F8C98F"/>
<path d="M117.045 128.817L119.277 145.175H134.796L130.011 125.788C129.196 122.204 125.628 119.962 122.041 120.787C118.459 121.607 116.214 125.178 117.031 128.764L117.045 128.817Z" fill="#BF23FF"/>
<path d="M83.6812 92.0846C83.6812 94.693 83.3124 97.7117 81.1783 97.7117C79.0426 97.7117 75.9551 94.693 75.9551 92.0846C75.9551 89.4757 77.6841 88.1436 79.8209 88.1436C81.9539 88.1436 83.6812 89.4757 83.6812 92.0846Z" fill="#FADBAC"/>
<path d="M79.8113 89.9136C78.4418 89.9224 77.3369 90.7748 77.3369 92.4467C77.3369 94.0918 79.2339 95.9712 80.6012 96.053C79.9507 94.1125 79.7707 91.8385 79.8113 89.9136Z" fill="#F8C98F"/>
<path d="M116.87 92.0846C116.87 94.693 117.242 97.7117 119.376 97.7117C121.51 97.7117 124.599 94.693 124.599 92.0846C124.599 89.4757 122.872 88.1436 120.736 88.1436C118.601 88.1436 116.87 89.4757 116.87 92.0846Z" fill="#FADBAC"/>
<path d="M120.629 89.9136C122 89.9224 123.107 90.7748 123.107 92.4467C123.107 94.0918 121.205 95.9712 119.84 96.053C120.489 94.1125 120.671 91.8385 120.629 89.9136Z" fill="#F8C98F"/>
<path d="M120.297 90.6504C120.297 105.791 111.326 114.648 100.271 114.648C89.2139 114.648 80.2539 105.791 80.2539 90.6504C80.2539 75.5148 89.2139 67.7952 100.271 67.7952C111.326 67.7952 120.297 75.5148 120.297 90.6504Z" fill="#FADBAC"/>
<path d="M93.7607 117.004C95.8075 117.694 97.9932 118.06 100.271 118.06C102.548 118.06 104.735 117.694 106.786 117.003L106.218 104.854H94.3288L93.7607 117.004Z" fill="#F6BA76"/>
<path d="M120.297 90.6504C120.297 105.791 111.326 114.648 100.271 114.648C89.2139 114.648 80.2539 105.791 80.2539 90.6504C80.2539 75.5148 89.2139 67.7952 100.271 67.7952C111.326 67.7952 120.297 75.5148 120.297 90.6504Z" fill="#F8C98F"/>
<path d="M110.709 87.4513C109.219 86.849 108.97 88.0758 110.355 88.7296C112.248 89.6248 112.163 88.0365 110.709 87.4513ZM106.941 91.4237C106.941 92.5047 107.684 93.3836 108.606 93.3836C109.525 93.3836 110.269 92.5047 110.269 91.4237C110.269 90.3399 109.525 89.4601 108.606 89.4601C107.684 89.4601 106.941 90.3399 106.941 91.4237ZM90.1921 88.7296C91.5786 88.0758 91.3321 86.849 89.8358 87.4513C88.3857 88.0365 88.3033 89.6248 90.1921 88.7296ZM93.6023 91.4237C93.6023 92.5047 92.8597 93.3836 91.9403 93.3836C91.0236 93.3836 90.2772 92.5047 90.2772 91.4237C90.2772 90.3399 91.0236 89.4601 91.9403 89.4601C92.8597 89.4601 93.6023 90.3399 93.6023 91.4237Z" fill="#5A3B27"/>
<path d="M95.8809 103.083C96.0949 105.065 97.9661 106.62 100.271 106.62C102.572 106.62 104.445 105.065 104.659 103.083H95.8809Z" fill="#DE7D62"/>
<path d="M118.404 69.8872C116.259 67.0763 113.731 66.378 111.621 67.0372C112.544 66.3083 113.55 65.6424 114.24 64.8549C115.485 63.4228 115.72 63.1935 114.087 62.8817C113.162 62.701 111.878 63.5304 110.747 64.7192C111.243 62.8103 111.421 60.988 110.363 60.7344C109.062 60.4292 108.559 62.1005 108.396 64.1261C107.534 63.3307 106.326 62.696 104.664 62.3191C90.1062 59.0148 77.5191 70.5539 78.5296 82.3253C78.6723 84.5314 79.1394 86.9509 79.415 88.0937C79.7042 89.2744 80.3585 93.3838 81.7719 94.8619C82.0759 92.0034 81.4491 86.7681 83.2615 84.0593C83.8983 83.2634 84.6223 82.5593 85.5647 82.0543C86.7991 81.3951 88.0841 81.1639 89.3921 81.1348C88.8679 81.776 88.2981 82.3924 88.0352 83.1377C90.2571 83.2683 93.085 83.405 95.1082 82.1448C94.0351 83.243 93.1816 84.2537 93.2579 84.8271C93.5356 86.7747 99.8572 83.6938 100.76 82.668C100.934 83.3595 100.708 84.0879 100.406 84.7053C102.557 84.4579 103.204 82.4966 104.521 81.1931C104.844 82.3326 104.394 83.4144 104.548 84.5172C106.48 83.3865 107.233 80.631 107.511 77.9101C107.655 80.8016 109.246 84.1861 111.506 84.9034C111.607 84.2574 111.48 82.5648 111.792 81.6497C113.235 82.4484 114.778 83.0774 116.098 84.6521C116.68 85.3453 117.153 85.8657 117.43 86.4049C118.334 88.1437 119.303 92.5139 119.024 95.1644C119.845 94.4037 120.679 90.707 120.679 90.707C122.667 84.9119 122.507 75.264 118.404 69.8872Z" fill="#35373D"/>
<path d="M103.072 98.0863C103.072 98.0863 103.089 98.2065 103.089 98.409C103.089 98.5771 103.061 98.9646 102.881 99.3274C102.804 99.5195 102.668 99.7149 102.494 99.9032C102.321 100.079 102.103 100.279 101.854 100.389C101.605 100.515 101.344 100.629 101.082 100.669C100.81 100.732 100.563 100.73 100.303 100.76C99.9095 100.719 99.8903 100.732 99.5439 100.656C99.2289 100.595 98.9473 100.468 98.7282 100.338C98.2529 100.078 97.9225 99.6797 97.7402 99.3323C97.6447 99.1517 97.5695 98.9837 97.5454 98.8213C97.5081 98.6659 97.4729 98.5398 97.468 98.4272C97.4521 98.2015 97.468 98.0803 97.468 98.0803L97.4795 97.9745C97.4938 97.858 97.6047 97.774 97.7194 97.7888L97.8912 97.9095C97.8912 97.9095 97.934 98.0013 98.0026 98.156C98.0784 98.3075 98.2052 98.5179 98.3989 98.7385C98.5949 98.9515 98.8545 99.1776 99.1888 99.3181C99.3501 99.4037 99.5258 99.4421 99.7053 99.4861C99.8705 99.5355 100.132 99.5272 100.299 99.5509C100.497 99.5355 100.704 99.5442 100.889 99.503C101.082 99.4734 101.264 99.4267 101.428 99.3543C101.596 99.2977 101.738 99.1946 101.867 99.1051C101.988 99.0008 102.106 98.8999 102.184 98.7803C102.371 98.5501 102.466 98.3524 102.544 98.1704C102.616 98.004 102.657 97.907 102.657 97.907L102.928 97.7955L103.052 97.9496L103.072 98.0863Z" fill="#DC9669"/>
<path d="M87.498 100.045C87.2269 100.045 86.9481 99.988 86.6742 99.8695C85.5292 99.3738 84.9117 97.9764 85.2937 96.7474C85.583 95.8076 86.3695 95.2363 87.2346 95.2363C87.5046 95.2363 87.7818 95.2919 88.0546 95.4092C89.1985 95.9093 89.8182 97.3079 89.4334 98.5358C89.1458 99.4733 88.3604 100.045 87.498 100.045Z" fill="#FABC8E"/>
<path d="M130.012 125.788C129.197 122.204 125.629 119.962 122.042 120.787C121.753 120.851 121.479 120.94 121.209 121.041H113.614H110.385C109.762 126.082 100.691 138.353 100.691 138.353C100.691 138.353 90.7886 126.082 90.1651 121.041H86.9355H79.3619C79.0918 120.94 78.8152 120.851 78.5259 120.787C74.9445 119.962 71.3772 122.204 70.5605 125.788L65.7764 145.175H78.2444H81.2951H98.5148H102.044H119.278H122.31H134.797L130.012 125.788Z" fill="#424242"/>
<path d="M100.639 68.8156L60.7266 55.5189V54.7802L100.001 44.9607L139.849 56.5271V57.2686L100.639 68.8156Z" fill="#404040"/>
<path d="M100.639 69.5533L60.7266 55.5188L100.001 45.7007L139.849 57.2684L100.639 69.5533Z" fill="#2B2B2B"/>
<path d="M100.55 57.6298V57.6265H100.514L100.289 57.6281L100.059 57.6265H100.028V57.6298C88.7894 57.655 79.752 58.4822 79.752 59.5004V74.4192H80.0604C81.1703 74.0459 85.2518 73.7698 90.1364 73.7698C94.7563 73.7698 98.6683 74.7887 100.014 75.428H100.028H100.55H100.561C101.908 74.7887 105.815 73.7698 110.439 73.7698C115.322 73.7698 119.403 74.0459 120.514 74.4192H120.824V59.5004C120.824 58.4822 111.787 57.655 100.55 57.6298Z" fill="#424242"/>
<path d="M72.772 70.5164H71.6201V51.9858L72.772 51.6958V70.5164Z" fill="#F3FF72"/>
<path d="M73.1748 69.1733C73.1748 69.6741 72.739 70.0769 72.1956 70.0769C71.656 70.0769 71.2158 69.6741 71.2158 69.1733C71.2158 68.675 71.656 68.2727 72.1956 68.2727C72.739 68.2727 73.1748 68.675 73.1748 69.1733Z" fill="#F3FF72"/>
<path d="M72.9553 69.8765L74.0548 77.5769H70.3408L71.4396 69.8765H72.9553Z" fill="#F3FF72"/>
<path d="M87.5254 120.389L93.1485 116.69L99.4159 124.139L92.4577 130.503L87.5254 120.389Z" fill="#EBEBEB"/>
<path d="M113.254 120.389L107.63 116.69L101.365 124.139L108.321 130.503L113.254 120.389Z" fill="#EBEBEB"/>
<path d="M99.4166 124.139L100.691 127.288L96.2441 127.04L99.4166 124.139Z" fill="white"/>
<path d="M101.354 124.139L100.08 127.288L104.524 127.04L101.354 124.139Z" fill="white"/>
<path d="M101.354 124.139H99.4162L98.2412 125.239L99.513 128.046H101.361L102.525 125.211L101.354 124.139Z" fill="#1C5891"/>
<path d="M100.69 138.353C100.69 138.353 101.673 137.021 103.012 135.059L101.36 128.045H99.5129L98.2373 135.168C99.6551 137.069 100.69 138.353 100.69 138.353Z" fill="#1F609E"/>
<path d="M119.927 41.8327L121.612 37.6129C121.936 36.8011 122.856 36.4054 123.669 36.7298C124.481 37.0553 124.876 37.9735 124.552 38.7871C124.459 39.0198 124.31 39.2232 124.136 39.3808L120.745 42.4062C120.534 42.5946 120.211 42.576 120.021 42.3641C119.887 42.2147 119.857 42.0073 119.927 41.8327Z" fill="#AFB8B7"/>
<path d="M142.297 42.4062L138.907 39.3797C138.254 38.7985 138.198 37.7971 138.781 37.1457C139.363 36.4942 140.364 36.4372 141.015 37.0185C141.203 37.1862 141.342 37.3949 141.432 37.6128L143.114 41.8327C143.22 42.0955 143.092 42.3948 142.829 42.4989C142.643 42.5736 142.437 42.5314 142.297 42.4062Z" fill="#AFB8B7"/>
<path d="M147.555 25.6411C147.555 34.4963 140.377 41.6753 131.522 41.6753C122.667 41.6753 115.486 34.4963 115.486 25.6411C115.486 16.7849 122.667 9.60596 131.522 9.60596C140.377 9.60596 147.555 16.7849 147.555 25.6411Z" fill="#1C5891"/>
<path d="M144.048 25.6409C144.048 32.5586 138.44 38.1672 131.522 38.1672C124.604 38.1672 118.996 32.5586 118.996 25.6409C118.996 18.7224 124.604 13.1133 131.522 13.1133C138.44 13.1133 144.048 18.7224 144.048 25.6409Z" fill="#F3F4F6"/>
<path d="M124.752 7.26266C122 3.54098 117.718 4.83541 114.706 7.55514C111.694 10.2749 110.206 14.8547 113.388 17.5207C117.457 17.1079 123.325 10.9023 124.752 7.26266Z" fill="#AFB8B7"/>
<path d="M115.033 7.07825L114.181 7.84778L113.538 7.13354L114.39 6.36572L115.033 7.07825Z" fill="#AFB8B7"/>
<rect x="111.828" y="15.2227" width="1.73923" height="2.29804" fill="#90B0CD"/>
<path d="M120.972 12.6852C121.173 12.4717 121.372 12.2548 121.566 12.0381L121.811 11.7515C121.947 11.5945 122.081 11.4381 122.212 11.2816C122.307 11.1626 122.399 11.045 122.493 10.927C122.6 10.7915 122.705 10.6559 122.807 10.5215C122.901 10.3979 122.99 10.2756 123.078 10.1549C123.175 10.0237 123.265 9.89514 123.352 9.76575C123.437 9.64319 123.519 9.52368 123.598 9.40295L123.657 9.31836C122.947 10.4133 122.018 11.5825 120.972 12.6852Z" fill="#899493"/>
<path d="M138.289 7.26266C141.042 3.54098 145.325 4.83541 148.336 7.55514C151.347 10.2749 152.837 14.8547 149.654 17.5207C145.586 17.1079 139.717 10.9023 138.289 7.26266Z" fill="#AFB8B7"/>
<path d="M148.009 7.07825L148.861 7.84778L149.504 7.13354L148.652 6.36572L148.009 7.07825Z" fill="#AFB8B7"/>
<path d="M143.027 13.6449L143.02 13.6382L143.027 13.6449Z" fill="#77A4CD"/>
<path d="M139.396 9.32874L139.386 9.31836L139.395 9.32715L139.396 9.32874Z" fill="#899493"/>
<path d="M133.731 7.58362H129.312V6.0144H133.731V7.58362Z" fill="#AFB8B7"/>
<path d="M132.086 7.5835H130.957V9.23706H132.086V7.5835Z" fill="#AFB8B7"/>
<path d="M132.146 16.7373H130.896V14.0049H132.146V16.7373Z" fill="#AFB8B7"/>
<path d="M132.146 37.276H130.896V34.5435H132.146V37.276Z" fill="#AFB8B7"/>
<path d="M143.157 26.2657H140.426V25.0161H143.157V26.2657Z" fill="#AFB8B7"/>
<path d="M122.617 26.2657H119.885V25.0161H122.617V26.2657Z" fill="#AFB8B7"/>
<path d="M130.799 25.6411L131.229 15.5185C131.236 15.3571 131.374 15.2319 131.535 15.238C131.687 15.2451 131.807 15.368 131.815 15.5185L132.245 25.6411C132.262 26.0414 131.951 26.3783 131.551 26.3952C131.152 26.4128 130.815 26.1021 130.799 25.7038V25.6411Z" fill="#38536E"/>
<path d="M131.756 25.0728L139.885 25.6848C140.012 25.6942 140.107 25.8051 140.098 25.9319C140.088 26.051 139.988 26.1416 139.869 26.1442L131.717 26.2091C131.403 26.2113 131.146 25.9594 131.143 25.6448C131.141 25.3302 131.394 25.0745 131.708 25.0718L131.756 25.0728Z" fill="#FF6160"/>
<path d="M131.628 26.445L125.099 31.7952C124.974 31.8984 124.79 31.8802 124.688 31.7546C124.592 31.6381 124.603 31.4686 124.706 31.3634L130.656 25.3743C130.938 25.0911 131.396 25.0888 131.68 25.3709C131.964 25.653 131.966 26.1114 131.684 26.3957L131.628 26.445Z" fill="#38536E"/>
<path d="M132.747 25.6412C132.747 26.3175 132.198 26.8663 131.521 26.8663C130.844 26.8663 130.296 26.3175 130.296 25.6412C130.296 24.965 130.844 24.4155 131.521 24.4155C132.198 24.4155 132.747 24.965 132.747 25.6412Z" fill="#AFB8B7"/>
<path d="M132.169 25.6409C132.169 25.9978 131.878 26.2869 131.522 26.2869C131.164 26.2869 130.875 25.9978 130.875 25.6409C130.875 25.283 131.164 24.9922 131.522 24.9922C131.878 24.9922 132.169 25.283 132.169 25.6409Z" fill="#F3F4F6"/>
<path d="M124.746 7.27808C124.748 7.27307 124.75 7.26758 124.751 7.2627C124.75 7.26758 124.748 7.27307 124.746 7.27808Z" fill="#85B1DD"/>
<path d="M120.894 12.7665L120.972 12.6853C120.95 12.7089 120.928 12.7319 120.906 12.7555L120.894 12.7665Z" fill="#98A09F"/>
<path d="M113.387 17.5209C113.203 17.366 113.039 17.2036 112.884 17.0367L112.751 16.8793C112.65 16.7617 112.555 16.6416 112.47 16.5181L112.342 16.3237C112.267 16.2057 112.198 16.0867 112.137 15.9642L112.036 15.7601C111.978 15.63 111.927 15.4961 111.881 15.3616L111.817 15.1804C111.76 14.9889 111.714 14.7933 111.681 14.5975L111.663 14.425C111.642 14.2814 111.626 14.1381 111.62 13.9908L111.616 13.7302L111.613 13.5096C112.291 13.7181 113.03 13.8208 113.812 13.8208C116.756 13.8208 120.294 12.3635 123.317 9.63281L123.656 9.31836L123.598 9.40295C123.519 9.52368 123.437 9.64319 123.352 9.76575C123.265 9.89514 123.174 10.0237 123.078 10.1549C122.99 10.2756 122.901 10.3979 122.807 10.5215C122.705 10.6559 122.6 10.7915 122.493 10.927C122.399 11.045 122.307 11.1626 122.212 11.2816C122.081 11.4381 121.947 11.5945 121.811 11.7515L121.566 12.0381C121.372 12.2548 121.173 12.4717 120.972 12.6852L120.894 12.7664L120.634 13.0294C120.483 13.1841 120.33 13.3379 120.175 13.4865L119.868 13.778C119.717 13.92 119.563 14.0585 119.41 14.1958L119.097 14.4707C118.933 14.6101 118.769 14.7462 118.605 14.8801L118.314 15.1135C118.097 15.2836 117.878 15.4462 117.66 15.6019L117.524 15.7013C117.261 15.8846 116.999 16.0565 116.737 16.2179L116.494 16.3589C116.31 16.4666 116.126 16.5714 115.944 16.6669L115.657 16.809C115.488 16.8904 115.319 16.9655 115.154 17.0345L114.869 17.1487C114.694 17.2145 114.524 17.2683 114.353 17.3167L114.112 17.3875C113.865 17.4496 113.623 17.4962 113.387 17.5209Z" fill="#778080"/>
<path d="M114.181 7.84778L113.538 7.13354L114.39 6.36572L115.033 7.07825L114.181 7.84778Z" fill="#98A09F"/>
<path d="M149.229 13.8209C146.284 13.8203 142.748 12.3636 139.722 9.63281L139.395 9.32727C138.952 8.6449 138.59 7.9884 138.345 7.39832L138.342 7.39465L138.341 7.38965C138.323 7.3468 138.306 7.30469 138.289 7.26282C138.295 7.2561 138.299 7.24976 138.303 7.24304C139.513 5.62012 141.015 4.95862 142.573 4.95752H142.578H142.582C144.533 4.95911 146.573 5.99377 148.24 7.46863C148.247 7.47534 148.255 7.48181 148.262 7.4884C148.287 7.51099 148.311 7.53284 148.336 7.55542C150.106 9.1543 151.341 11.3943 151.421 13.5118L151.428 13.5098C150.75 13.7181 150.011 13.8209 149.229 13.8209Z" fill="#98A09F"/>
<path d="M145.716 15.838C145.679 15.8132 145.643 15.7891 145.607 15.7643C145.574 15.7413 145.543 15.7188 145.509 15.6958L145.497 15.6875C145.571 15.7384 145.642 15.788 145.716 15.838Z" fill="#688EB2"/>
<path d="M149.655 17.5209C149.42 17.4962 149.177 17.4496 148.93 17.3875L148.692 17.3179C148.52 17.2683 148.347 17.2145 148.172 17.1476L147.89 17.0358C147.722 16.9655 147.554 16.8904 147.382 16.8068L147.1 16.6675C146.915 16.5714 146.729 16.4658 146.542 16.3562L146.307 16.2184C146.109 16.0972 145.913 15.9708 145.716 15.8379C145.642 15.788 145.571 15.7386 145.497 15.6876L145.398 15.614C145.173 15.4532 144.95 15.2874 144.726 15.1112L144.442 14.8845C144.276 14.7472 144.109 14.6101 143.943 14.4691L143.634 14.1984C143.48 14.0591 143.326 13.9192 143.173 13.7764L142.868 13.4877C142.711 13.3367 142.557 13.1809 142.404 13.026L142.139 12.7566C141.913 12.5194 141.691 12.2786 141.475 12.0369L141.238 11.7587C141.098 11.5984 140.963 11.4386 140.829 11.2784L140.554 10.9342C140.443 10.7943 140.335 10.6544 140.23 10.5165C140.14 10.397 140.052 10.2788 139.967 10.1598C139.868 10.0237 139.775 9.88855 139.68 9.75293L139.448 9.4104L139.386 9.31836L139.396 9.32874L139.395 9.32715L139.723 9.63281C142.748 12.3635 146.285 13.8202 149.23 13.8208C150.011 13.8208 150.751 13.7181 151.429 13.5096L151.426 13.7363L151.422 13.9899C151.417 14.1343 151.4 14.2759 151.381 14.417L151.36 14.5992C151.328 14.7952 151.283 14.9867 151.226 15.1776L151.157 15.373C151.113 15.5022 151.065 15.631 151.008 15.7561L150.902 15.9714C150.842 16.0889 150.776 16.2051 150.703 16.3188L150.57 16.5225C150.486 16.6416 150.393 16.7585 150.295 16.8732L150.157 17.0389C150.003 17.2052 149.839 17.3666 149.655 17.5209Z" fill="#778080"/>
<path d="M148.861 7.84778L148.009 7.07825L148.652 6.36572L149.504 7.13354L148.861 7.84778Z" fill="#98A09F"/>
<path d="M133.731 7.58362H129.312V6.0144H133.731V7.58362Z" fill="#98A09F"/>
<path d="M132.086 9.23706H130.957V7.5835H132.086V9.23706Z" fill="#98A09F"/>
<path d="M143.114 41.8328L141.622 38.0936L141.623 38.0933L143.114 41.8328Z" fill="#B8CADD"/>
<path d="M142.637 42.5359H142.63C142.52 42.5342 142.414 42.4974 142.327 42.4327C142.317 42.4246 142.307 42.4158 142.296 42.4064L139.254 39.6899C140.092 39.2279 140.885 38.6927 141.622 38.0938L143.114 41.8329C143.139 41.8943 143.151 41.9581 143.151 42.0205C143.152 42.2252 143.03 42.4189 142.828 42.4991C142.766 42.5238 142.703 42.5359 142.641 42.5359H142.637Z" fill="#98A09F"/>
<path d="M131.572 41.6729V38.1671C138.467 38.1396 144.048 32.5415 144.048 25.641C144.048 18.7393 138.467 13.1406 131.572 13.113V9.60742C140.301 9.63538 147.387 16.6354 147.552 25.3314V25.3319C147.553 25.366 147.553 25.4006 147.553 25.4341V25.439C147.555 25.4518 147.555 25.4636 147.555 25.4758V25.5312V25.5383V25.641V25.6689V25.6785V25.697V25.7074V25.7249V25.7354V25.7531V25.765V25.7804V25.7925V25.8101V25.8201C147.555 25.8386 147.553 25.8572 147.553 25.8759V25.8787V25.905V25.9083C147.553 25.9164 147.553 25.9248 147.552 25.933V25.9385V25.9619V25.967V25.9911L147.551 25.995C147.445 30.8767 145.156 35.2201 141.623 38.0903L141.624 38.0931L141.623 38.0936C140.886 38.6924 140.093 39.2277 139.254 39.6897V39.6903L139.252 39.6886C136.974 40.9451 134.356 41.6653 131.572 41.6729Z" fill="#184C7E"/>
<path d="M140.426 25.0159V26.2656H143.157V25.0159H140.426Z" fill="#D3D4D6"/>
<path d="M132.147 16.7373H131.866L131.815 15.5187C131.807 15.381 131.707 15.2661 131.572 15.2421V14.0049H132.147V16.7373Z" fill="#98A09F"/>
<path d="M132.147 37.276H131.572V34.5435H132.147V37.276Z" fill="#98A09F"/>
<path d="M143.157 26.2657H140.426V25.0161H143.157V26.2657Z" fill="#98A09F"/>
<path d="M132.201 24.6215C132.02 24.5007 131.804 24.4265 131.572 24.4166V15.2419C131.707 15.2662 131.807 15.3809 131.815 15.5187L131.866 16.7371L132.201 24.6215Z" fill="#314860"/>
<path d="M132.611 26.2021C132.698 26.0342 132.747 25.8438 132.747 25.6412C132.747 25.4629 132.708 25.2932 132.639 25.1401L139.885 25.6852C140.011 25.6945 140.106 25.8053 140.098 25.9321C140.087 26.0511 139.988 26.1417 139.869 26.1447L132.611 26.2021Z" fill="#DE5453"/>
<path d="M131.572 26.8652V26.285C131.905 26.2593 132.169 25.981 132.169 25.6412C132.169 25.3003 131.905 25.021 131.572 24.9948V24.4165C131.804 24.4264 132.02 24.5007 132.201 24.6215C132.392 24.7491 132.544 24.9288 132.64 25.1401C132.708 25.2932 132.747 25.4629 132.747 25.6412C132.747 25.8438 132.698 26.0342 132.612 26.202C132.415 26.5825 132.026 26.8467 131.572 26.8652Z" fill="#98A09F"/>
<path d="M131.572 26.2852V24.9946C131.905 25.0209 132.169 25.3004 132.169 25.6411C132.169 25.981 131.905 26.2593 131.572 26.2852Z" fill="#D3D4D6"/>
<path d="M170.095 147.107C159.933 147.107 151.583 137.593 151.084 125.447L151.029 124.14H189.159L189.106 125.447C188.606 137.593 180.255 147.107 170.095 147.107Z" fill="#F8D636"/>
<path d="M170.095 144.596C165.378 144.596 161.11 142.169 158.092 138.26L158.175 139.033C158.175 140.273 158.363 141.466 158.717 142.592C161.893 145.429 165.835 147.107 170.095 147.107C174.354 147.107 178.295 145.429 181.473 142.592C181.824 141.466 182.012 140.273 182.012 139.033L182.096 138.26C179.079 142.169 174.811 144.596 170.095 144.596Z" fill="#F8D636"/>
<path d="M156.855 126.65H183.334L183.603 124.14H156.586L156.855 126.65Z" fill="#F8D636"/>
<path d="M177.642 165.051L170.095 158.6L162.549 165.051H177.642Z" fill="#F8D636"/>
<path d="M173.044 163.629H167.145V143.939H173.044V163.629Z" fill="#F8D636"/>
<path d="M179.433 167.548H160.756V165.051H179.433V167.548Z" fill="#F5C70D"/>
<path d="M167.145 151.439C168.083 151.704 169.071 151.854 170.095 151.854C171.118 151.854 172.106 151.704 173.044 151.439V143.939H167.145V151.439Z" fill="#F8D636"/>
<path d="M157.014 118.131L159.198 138.586C159.198 144.605 164.075 149.483 170.095 149.483C176.114 149.483 180.991 144.605 180.991 138.586L183.175 118.131H157.014Z" fill="#F8D636"/>
<path d="M166.115 137.629L167.635 132.953L163.658 130.062H168.575L170.093 125.39V134.739L166.115 137.629Z" fill="#FDF081"/>
<path d="M170.094 141.417C164.933 141.417 160.732 137.218 160.732 132.056C160.732 126.894 164.933 122.696 170.094 122.695V124.289C165.813 124.289 162.328 127.774 162.328 132.056C162.328 136.337 165.813 139.822 170.094 139.822V141.417Z" fill="#FDF081"/>
<path d="M181.467 177.191H158.722V167.548H181.467V177.191Z" fill="#734A29"/>
<path d="M189.104 125.506C189.104 125.498 189.105 125.491 189.105 125.483C189.105 125.491 189.104 125.498 189.104 125.506Z" fill="#85B1DD"/>
<path d="M181.48 142.566C181.828 141.449 182.012 140.264 182.012 139.034L182.096 138.264C184.324 135.379 185.868 131.682 186.406 127.555L186.408 127.55C186.409 127.535 186.412 127.52 186.413 127.506C186.414 127.499 186.416 127.493 186.416 127.487C186.417 127.48 186.418 127.472 186.418 127.465C186.42 127.451 186.422 127.437 186.423 127.425C186.424 127.421 186.424 127.42 186.424 127.415C186.453 127.192 186.478 126.968 186.499 126.741C186.501 126.733 186.502 126.722 186.502 126.712C186.503 126.706 186.503 126.699 186.504 126.693L186.508 126.65H183.335L183.603 124.14H189.159L189.106 125.447C189.106 125.458 189.105 125.471 189.105 125.483C189.105 125.49 189.104 125.498 189.104 125.506V125.52C189.102 125.529 189.102 125.538 189.102 125.548L189.101 125.556C189.101 125.565 189.101 125.575 189.1 125.585V125.593C189.1 125.603 189.098 125.613 189.098 125.623V125.626C189.096 125.684 189.092 125.742 189.09 125.801V125.802C189.09 125.812 189.088 125.824 189.088 125.835L189.087 125.838C189.087 125.848 189.086 125.86 189.086 125.87V125.876C189.083 125.909 189.082 125.942 189.079 125.975V125.979C189.079 125.984 189.079 125.989 189.078 125.994C189.078 126.002 189.078 126.011 189.077 126.019V126.032C189.075 126.04 189.075 126.05 189.074 126.059V126.069C189.073 126.079 189.073 126.09 189.072 126.1V126.106C188.63 132.876 185.735 138.76 181.48 142.566Z" fill="#D8BA2F"/>
<path d="M179.477 144.131C180.275 142.786 180.79 141.254 180.944 139.616C181.345 139.187 181.73 138.734 182.096 138.26V138.264L182.012 139.033C182.012 140.264 181.828 141.449 181.481 142.566L181.479 142.568L181.473 142.592C181.305 142.742 181.125 142.875 180.954 143.02C180.736 143.199 180.524 143.387 180.3 143.555C180.032 143.76 179.754 143.946 179.477 144.131Z" fill="#D8BA2F"/>
<path d="M183.335 126.65H182.266L182.534 124.14H183.603L183.335 126.65Z" fill="#D8BA2F"/>
<path d="M177.641 165.051H170.093V163.63H173.043V161.122L177.641 165.051Z" fill="#D8BA2F"/>
<path d="M173.044 163.629H170.094V151.854H170.095C171.119 151.854 172.107 151.704 173.044 151.44V161.122V163.629Z" fill="#D8BA2F"/>
<path d="M179.432 167.548H170.093V165.051H177.641H179.432V167.548Z" fill="#D5AD0B"/>
<path d="M170.095 151.854H170.094V149.483H170.095C171.117 149.483 172.107 149.342 173.044 149.081V151.44C172.107 151.704 171.119 151.854 170.095 151.854Z" fill="#D8BA2F"/>
<path d="M170.095 139.822H170.094V134.739L170.095 134.738L174.073 137.629L172.553 132.954L176.53 130.063H171.615L170.095 125.387L170.094 125.39V124.289H170.095C174.378 124.289 177.861 127.774 177.861 132.056C177.861 136.337 174.378 139.822 170.095 139.822Z" fill="#D8BA2F"/>
<path d="M174.072 137.629L170.094 134.738L170.093 134.739V125.39L170.094 125.387L171.614 130.062H176.529L172.552 132.953L174.072 137.629Z" fill="#DCD070"/>
<path d="M170.095 141.417H170.094V139.822H170.095C174.378 139.822 177.861 136.337 177.861 132.056C177.861 127.774 174.378 124.289 170.095 124.289H170.094V122.695H170.095C175.257 122.695 179.457 126.893 179.457 132.056C179.457 137.218 175.257 141.417 170.095 141.417Z" fill="#DCD070"/>
<path d="M181.467 177.191H170.093V167.548H179.432H181.467V177.191Z" fill="#644024"/>
<path d="M83.8807 31.5896H80.3001L79.9062 29.5923H84.2732L83.8807 31.5896Z" fill="#516975"/>
<path d="M89.4464 13.1798C89.4464 9.11755 86.1537 5.82373 82.0892 5.82373C78.0257 5.82373 74.7324 9.11755 74.7324 13.1798C74.7324 16.0405 75.8593 17.0758 75.8593 17.0758C77.4527 18.5366 78.7552 21.3625 78.7552 23.353C78.7552 25.3442 80.2559 26.9751 82.0881 26.9751C83.9241 26.9751 85.4231 25.3442 85.4231 23.353C85.4231 21.3625 86.7273 18.5366 88.319 17.0758C88.319 17.0758 89.4464 16.0405 89.4464 13.1798Z" fill="#F8D636"/>
<path d="M78.4824 24.5273L79.2684 29.9C79.2684 30.1145 80.532 30.2891 82.0897 30.2891C83.648 30.2891 84.911 30.1145 84.911 29.9L85.6986 24.5273H78.4824Z" fill="#919191"/>
<path d="M72.9891 11.6357L70.6816 11.183L70.9093 10.0266L73.2174 10.4794L72.9891 11.6357Z" fill="#F8D636"/>
<path d="M74.2719 7.57422L72.2588 6.34668L72.8722 5.3418L74.8847 6.56812L74.2719 7.57422Z" fill="#F8D636"/>
<path d="M77.2072 4.93005L76.1865 2.79016L77.2495 2.28271L78.2709 4.42126L77.2072 4.93005Z" fill="#F8D636"/>
<path d="M91.1898 11.6357L90.9639 10.4794L93.2712 10.0266L93.4972 11.183L91.1898 11.6357Z" fill="#F8D636"/>
<path d="M89.8601 7.7677L89.248 6.76123L91.2597 5.5354L91.873 6.54065L89.8601 7.7677Z" fill="#F8D636"/>
<path d="M86.9669 4.76477L85.9043 4.25732L86.9256 2.11768L87.9883 2.62561L86.9669 4.76477Z" fill="#F8D636"/>
<path d="M81.4192 3.73328L81.3789 1.35901L82.5571 1.33887L82.5984 3.71387L81.4192 3.73328Z" fill="#F8D636"/>
<path d="M81.6472 24.5273L81.6465 12.9563H82.5343L82.5356 24.5273H81.6472Z" fill="white"/>
<path d="M84.7474 13.4001H79.4343L78.6777 10.4249L79.537 10.2063L80.124 12.5126H84.0578L84.6441 10.2063L85.504 10.4249L84.7474 13.4001Z" fill="white"/>
<path d="M82.0762 3.72192V1.34753L82.5565 1.33887L82.5978 3.71387L82.0762 3.72192Z" fill="#D8BA2F"/>
<path d="M83.88 31.5897H82.0762H83.88L84.1447 30.2422L83.88 31.5897Z" fill="#A9C2DD"/>
<path d="M84.9102 29.9025V29.9L85.6384 24.9331L84.9102 29.9V29.9025Z" fill="#B8CADD"/>
<path d="M83.8804 31.5894H82.0762V30.2893H82.0894C82.9077 30.2893 83.6454 30.2407 84.1603 30.1641L84.1449 30.2419L83.8804 31.5894Z" fill="#465B66"/>
<path d="M85.2383 24.5276H82.5345L82.5334 13.4005H84.7465L85.5034 10.4249L84.6433 10.2067L84.0571 12.5129H82.0762V5.82422L82.0894 5.82373C86.1539 5.82373 89.4466 9.11755 89.4466 13.1798C89.4466 16.0405 88.3192 17.0758 88.3192 17.0758C86.7275 18.5366 85.4233 21.3625 85.4233 23.353V23.371V23.3733C85.4216 23.7778 85.3547 24.1654 85.2383 24.5276Z" fill="#D8BA2F"/>
<path d="M82.0894 30.2891H82.0762V24.5273H82.5345H85.2383H85.6983L85.639 24.933L84.9106 29.9V29.9026V29.9032V29.9048V29.9055L84.909 29.9075V29.9081V29.9098V29.9103V29.9125C84.8925 29.9844 84.7339 30.0515 84.4704 30.1084C84.3788 30.1282 84.275 30.147 84.1603 30.1633V30.1638C83.6454 30.2407 82.9077 30.2891 82.0894 30.2891Z" fill="#7E7E7E"/>
<path d="M82.5345 24.5275H82.0762V13.4004H82.5332L82.5345 24.5275Z" fill="#DEDDDD"/>
<path d="M84.7463 13.4001H82.5332H82.0762V12.5126H84.0568L84.6431 10.2063L85.503 10.4249L84.7463 13.4001Z" fill="#DEDDDD"/>
<path d="M91.1898 11.6357L90.9639 10.4794L93.2712 10.0266L93.4972 11.183L91.1898 11.6357Z" fill="#D8BA2F"/>
<path d="M89.8601 7.7677L89.248 6.76123L91.2597 5.5354L91.873 6.54065L89.8601 7.7677Z" fill="#D8BA2F"/>
<path d="M86.9669 4.76477L85.9043 4.25732L86.9256 2.11768L87.9883 2.62561L86.9669 4.76477Z" fill="#D8BA2F"/>
<path d="M41.9297 103.826C41.9297 104.505 41.669 105.183 41.1519 105.699C40.6343 106.215 39.9564 106.476 39.2785 106.476H17.5432C16.8653 106.476 16.1868 106.215 15.6693 105.699C15.1522 105.183 14.8926 104.505 14.8926 103.826V100.628H41.9297V103.826Z" fill="#1C5891"/>
<path d="M14.8921 108.355C14.8921 109.033 14.6335 109.711 14.117 110.23C13.5983 110.749 12.9199 111.007 12.2437 111.007H9.35925C8.68137 111.007 8.00238 110.749 7.4859 110.23C6.96777 109.711 6.70703 109.033 6.70703 108.355V98.7314H14.8921V108.355Z" fill="#2B2B2B"/>
<path d="M50.112 108.355C50.112 109.033 49.854 109.711 49.3353 110.23C48.8183 110.749 48.1409 111.007 47.4625 111.007H44.5787C43.9008 111.007 43.2234 110.749 42.7042 110.23C42.1882 109.711 41.9297 109.033 41.9297 108.355V98.7314H50.112V108.355Z" fill="#2B2B2B"/>
<path d="M28.41 57.8418C15.3003 57.8418 4.67383 63.2983 4.67383 66.7562V101.96H52.1483V66.7562C52.1483 63.2983 41.5202 57.8418 28.41 57.8418Z" fill="#F8D636"/>
<path d="M36.6225 66.9235V60.9526C34.2178 60.4054 31.5684 60.0728 28.7849 60.0728C25.7101 60.0728 22.7966 60.4778 20.1992 61.1305V66.9235H36.6225Z" fill="#E8F1F0"/>
<path d="M53.1895 100.726C53.1895 100.52 53.0891 100.312 52.8904 100.155C52.69 99.9985 52.4287 99.9185 52.168 99.9185H4.6557C4.39334 99.9185 4.13205 99.9985 3.9339 100.155C3.73358 100.312 3.63477 100.52 3.63477 100.726V103.245C3.63477 103.761 3.88397 104.279 4.38181 104.671C4.8797 105.068 5.53397 105.265 6.18713 105.265H50.6355C51.2892 105.265 51.9419 105.068 52.4408 104.671C52.9392 104.279 53.1895 103.761 53.1895 103.245V100.726Z" fill="#ABA3B0"/>
<path d="M48.0369 84.3042H8.78613V69.7744H48.0369V84.3042Z" fill="#2B2B2B"/>
<path d="M29.6476 85.4546H27.1748V68.113H29.6476V85.4546Z" fill="#F6CD41"/>
<path d="M14.9048 93.3307C14.9048 95.5983 13.0682 97.4363 10.8013 97.4363C8.53445 97.4363 6.69727 95.5983 6.69727 93.3307C6.69727 91.0648 8.53445 89.23 10.8013 89.23C13.0682 89.23 14.9048 91.0648 14.9048 93.3307Z" fill="#1C5891"/>
<path d="M14.0612 93.3306C14.0612 95.1329 12.6012 96.5925 10.8008 96.5925C8.99939 96.5925 7.54102 95.1329 7.54102 93.3306C7.54102 91.5317 8.99939 90.0723 10.8008 90.0723C12.6012 90.0723 14.0612 91.5317 14.0612 93.3306Z" fill="#E8F1F0"/>
<path d="M50.1238 93.3307C50.1238 95.5983 48.2861 97.4363 46.0209 97.4363C43.7556 97.4363 41.918 95.5983 41.918 93.3307C41.918 91.0648 43.7556 89.23 46.0209 89.23C48.2861 89.23 50.1238 91.0648 50.1238 93.3307Z" fill="#1C5891"/>
<path d="M49.2804 93.3306C49.2804 95.1329 47.8203 96.5925 46.0211 96.5925C44.2207 96.5925 42.7607 95.1329 42.7607 93.3306C42.7607 91.5317 44.2207 90.0723 46.0211 90.0723C47.8203 90.0723 49.2804 91.5317 49.2804 93.3306Z" fill="#E8F1F0"/>
<path d="M38.0844 92.0537H18.7373V90.3716H38.0844V92.0537Z" fill="#1C5891"/>
<path d="M38.0844 95.0153H18.7373V93.3306H38.0844V95.0153Z" fill="#1C5891"/>
<path d="M38.0844 97.9741H18.7373V96.2944H38.0844V97.9741Z" fill="#1C5891"/>
<path d="M53.082 78.0309C53.082 79.064 53.9191 79.902 54.9521 79.902C55.9829 79.902 56.8216 79.064 56.8216 78.0309V73.3252C56.8216 72.2941 55.9829 71.4568 54.9521 71.4568C53.9191 71.4568 53.082 72.2941 53.082 73.3252V78.0309Z" fill="#919191"/>
<path d="M56.1591 72.7649H54.5678C54.5678 70.3772 53.3789 68.3601 51.9727 68.3601V66.7705C54.3208 66.7705 56.1591 69.4036 56.1591 72.7649Z" fill="#919191"/>
<path d="M3.74124 78.0308C3.74124 79.0638 2.90253 79.9019 1.8717 79.9019C0.838684 79.9019 0 79.0638 0 78.0308V73.3252C0 72.2939 0.838684 71.4563 1.8717 71.4563C2.90253 71.4563 3.74124 72.2939 3.74124 73.3252V78.0308Z" fill="#919191"/>
<path d="M2.25476 72.7649H0.664062C0.664062 69.4036 2.50284 66.7705 4.84985 66.7705V68.3601C3.44312 68.3601 2.25476 70.3772 2.25476 72.7649Z" fill="#919191"/>
<rect x="30.8574" y="105.604" width="10.3858" height="1" fill="#A9C2DD"/>
<path d="M52.1377 66.5618C51.8994 64.4136 47.779 61.5754 41.6133 59.73H41.6139C47.7784 61.5754 51.8994 64.4136 52.1377 66.5618Z" fill="#A9C2DD"/>
<path d="M36.5298 58.5394C33.9967 58.0997 31.2617 57.8418 28.4102 57.8418C31.2621 57.8418 33.9967 58.0997 36.5298 58.5394Z" fill="#A0BEDD"/>
<path d="M41.6125 59.7297C40.0411 59.2588 38.3368 58.8533 36.5293 58.5393C38.3368 58.8533 40.0411 59.2588 41.6131 59.7297H41.6125Z" fill="#B8CADD"/>
<path d="M39.2787 106.476H30.8576H28.4102V105.265H41.5033H41.5016C41.4248 105.384 41.3398 105.497 41.2431 105.604C41.2141 105.636 41.1833 105.668 41.152 105.699C40.6344 106.216 39.9566 106.476 39.2787 106.476Z" fill="#184C7E"/>
<path d="M47.4625 111.007H44.5787C43.9008 111.007 43.2234 110.749 42.7042 110.23C42.1882 109.711 41.9297 109.033 41.9297 108.355V105.265H50.112V108.355C50.112 109.033 49.854 109.711 49.3353 110.23C48.8183 110.749 48.1409 111.007 47.4625 111.007Z" fill="#252525"/>
<path d="M46.0212 89.2299C43.7559 89.2299 41.9182 91.0649 41.9182 93.3308C41.9182 95.5981 43.7559 97.4364 46.0212 97.4364C48.2865 97.4364 50.1241 95.5981 50.1241 93.3308C50.1241 91.0649 48.2865 89.2299 46.0212 89.2299Z" fill="#D8BA2F"/>
<path d="M36.6226 66.9235H28.4102V60.075C28.5353 60.0734 28.6599 60.0728 28.785 60.0728C31.5684 60.0728 34.2179 60.4054 36.6226 60.9526V66.9235Z" fill="#CAD1D0"/>
<path d="M50.6352 105.265H50.1121H41.9298H41.5033H28.4102V99.9185H52.1484H52.1677C52.4284 99.9185 52.6897 99.9985 52.89 100.155C53.0887 100.312 53.1891 100.52 53.1891 100.726V103.245C53.1891 103.761 52.9388 104.279 52.4405 104.671C51.9415 105.068 51.2889 105.265 50.6352 105.265Z" fill="#958D99"/>
<path d="M48.0367 84.3042H29.6475V69.7744H48.0367V84.3042Z" fill="#252525"/>
<path d="M29.6472 85.4546H28.4102V68.113H29.6472V69.7743V84.3041V85.4546Z" fill="#D6B238"/>
<path d="M46.0209 90.0725C44.2206 90.0725 42.7605 91.532 42.7605 93.3307C42.7605 95.1333 44.2206 96.5928 46.0209 96.5928C47.8202 96.5928 49.2802 95.1333 49.2802 93.3307C49.2802 91.532 47.8202 90.0725 46.0209 90.0725Z" fill="#184C7E"/>
<path d="M46.0211 96.5925C44.2207 96.5925 42.7607 95.1329 42.7607 93.3306C42.7607 91.5317 44.2207 90.0723 46.0211 90.0723C47.8203 90.0723 49.2804 91.5317 49.2804 93.3306C49.2804 95.1329 47.8203 96.5925 46.0211 96.5925Z" fill="#CAD1D0"/>
<path d="M38.084 92.0537H28.4102V90.3716H38.084V92.0537Z" fill="#184C7E"/>
<path d="M38.084 95.0153H28.4102V93.3306H38.084V95.0153Z" fill="#184C7E"/>
<path d="M38.084 97.9741H28.4102V96.2944H38.084V97.9741Z" fill="#184C7E"/>
<path d="M54.9521 79.9019C53.9191 79.9019 53.082 79.0636 53.082 78.0306V73.325V73.3141L53.0826 73.3096V73.3025V73.2981V73.2915V73.2865V73.281L53.0831 73.2749V73.2711C53.1068 72.4385 53.6787 71.7485 54.4488 71.5323L54.4471 71.5251L54.4592 71.522C54.5305 71.9175 54.569 72.3354 54.569 72.7645H56.1602C56.1602 72.4611 56.1454 72.1635 56.1163 71.873C56.5329 72.208 56.8084 72.7113 56.8211 73.2827V73.2838V73.2953V73.2981L56.8216 73.3086V73.3118V73.325V78.0306C56.8216 79.0636 55.9829 79.9019 54.9521 79.9019Z" fill="#7E7E7E"/>
<path d="M56.1591 72.7649H54.5678C54.5678 72.3357 54.5294 71.918 54.458 71.5222C54.1501 69.8093 53.2274 68.5 52.1478 68.3706C52.0901 68.364 52.0314 68.3601 51.9727 68.3601V66.7705C52.0314 66.7705 52.0896 66.7722 52.1478 66.7754V66.7832C54.1979 66.8979 55.8226 69.0291 56.1086 71.8679L56.1151 71.8735C56.1442 72.1638 56.1591 72.4614 56.1591 72.7649Z" fill="#7E7E7E"/>
<path d="M49.3939 166.35L22.1946 182.187L0.632812 145.156L27.8315 129.319L49.3939 166.35Z" fill="#DBDBDB"/>
<path d="M48.3778 166.18L19.0252 177.534L3.56445 137.572L32.9176 126.217L48.3778 166.18Z" fill="#F0F0F0"/>
<path d="M50.2586 170.021L19.8861 178.273L9.33203 139.422L39.704 131.172L50.2586 170.021Z" fill="#DBDBDB"/>
<path d="M50.4216 178.752L19.0781 175.874L22.9983 133.204L54.343 136.081L50.4216 178.752Z" fill="#F0F0F0"/>
<path d="M50.9175 173.226L19.9284 178.73L12.8887 139.092L43.8773 133.587L50.9175 173.226Z" fill="white"/>
<path d="M41.8992 137.861L16.1504 142.348L16.0312 141.665L41.7795 137.177L41.8992 137.861Z" fill="#BDBDBD"/>
<path d="M42.5349 141.856L16.7849 146.341L16.667 145.656L42.4151 141.172L42.5349 141.856Z" fill="#BDBDBD"/>
<path d="M43.1902 145.81L17.4408 150.295L17.3223 149.612L43.071 145.125L43.1902 145.81Z" fill="#BDBDBD"/>
<path d="M43.8456 149.765L18.097 154.25L17.9785 153.566L43.7272 149.082L43.8456 149.765Z" fill="#BDBDBD"/>
<path d="M44.5001 153.72L18.7512 158.205L18.6328 157.521L44.3815 153.037L44.5001 153.72Z" fill="#BDBDBD"/>
<path d="M45.1563 157.675L19.4056 162.161L19.2871 161.478L45.0371 156.99L45.1563 157.675Z" fill="#BDBDBD"/>
<path d="M45.8112 161.628L20.0619 166.115L19.9434 165.431L45.6921 160.944L45.8112 161.628Z" fill="#BDBDBD"/>
<path d="M46.4655 165.583L20.7169 170.069L20.5977 169.386L46.3465 164.899L46.4655 165.583Z" fill="#BDBDBD"/>
<path d="M44.0454 165.365C43.0596 165.237 42.9888 166.566 42.8049 167.263C42.3877 168.856 41.8542 170.623 41.9755 172.286C41.9898 172.45 42.2593 172.452 42.2703 172.286L42.2681 172.205C42.1731 172.096 42.4855 170.917 42.5167 170.725C42.6095 170.173 42.7149 169.626 42.8021 169.077C42.8878 168.526 43.109 167.963 43.2588 167.423C43.323 167.197 43.8319 166.006 43.7786 165.809C44.0476 166.808 44.3687 167.679 44.4982 168.718C44.614 169.664 44.6552 170.657 44.8797 171.583L44.9104 171.731C45.0405 172.165 45.6767 171.901 45.5592 171.476C45.2068 170.19 45.1717 168.768 44.945 167.449C44.8802 167.079 44.5679 165.432 44.0454 165.365Z" fill="#F74640"/>
<path d="M44.6473 168.632C44.2488 168.933 44.0474 169.12 43.4837 169.066C43.2114 169.04 42.903 169.005 42.6406 169.095L42.5967 169.215C42.8705 169.619 43.4826 169.724 43.9382 169.749C44.3899 169.774 44.9229 169.465 45.1309 169.067C45.2978 168.743 44.9618 168.397 44.6473 168.632Z" fill="#F74640"/>
<path d="M46.4125 163.768L46.3466 163.963C47.9214 165.578 49.3644 168.2 48.063 170.446C46.6962 172.795 42.5214 173.333 40.6585 171.499C38.9696 169.839 38.9262 167.761 40.1662 165.822C41.4319 163.847 43.8585 162.393 46.0672 163.969L46.1408 163.881C45.0029 162.95 44.3487 162.674 42.9117 163.131C41.63 163.54 40.1299 164.832 39.4542 165.98C37.9069 168.606 38.885 171.325 41.4291 172.913C43.7339 174.353 47.6832 172.576 48.8358 170.386C49.7206 168.711 48.7595 163.917 46.4125 163.768Z" fill="#F74640"/>
<path d="M54.3427 136.081L44.1535 135.146H44.1533L54.3427 136.081Z" fill="#A9C2DD"/>
<path d="M50.4213 178.752L34.6276 177.302L34.4316 176.154L50.9169 173.226L44.1534 135.146L54.3427 136.081L53.1683 148.861L52.6157 154.874L50.9768 172.708L50.4213 178.752Z" fill="#D1D0D0"/>
<path d="M40.292 133.333L40.2908 133.332L39.7041 131.172L40.292 133.333Z" fill="#A9C2DD"/>
<path d="M35.2979 132.369L32.918 126.217L35.2979 132.369Z" fill="#B8CADD"/>
<path d="M29.893 133.837L27.1673 133.586L26.3438 128.761L32.9176 126.217L35.2972 132.368L29.893 133.837Z" fill="#D1D0D0"/>
<path d="M38.1876 134.599L29.8926 133.837L35.2968 132.369H35.297H35.2971L39.7034 131.172L40.2904 133.332L40.5218 134.183L38.1876 134.599Z" fill="#BEBEBE"/>
<path d="M27.6588 136.468L27.167 133.586L29.8927 133.837L38.1877 134.598L27.6588 136.468Z" fill="#D1D0D0"/>
<path d="M43.6664 169.074C43.6093 169.074 43.5489 169.071 43.4836 169.066C43.3448 169.052 43.196 169.037 43.0494 169.037C42.9666 169.037 42.8848 169.042 42.8058 169.055C42.8936 168.51 43.1109 167.955 43.2586 167.423C43.3091 167.246 43.6324 166.477 43.7443 166.057L43.842 166.04C44.0962 166.943 44.3788 167.759 44.498 168.718L44.5007 168.743C44.2317 168.945 44.0336 169.074 43.6664 169.074Z" fill="#DEDDDD"/>
<path d="M28.3014 140.231L28.1846 139.546L41.7795 137.177L41.8992 137.861L28.3014 140.231Z" fill="#A4A4A4"/>
<path d="M28.9821 144.217L28.8652 143.532L42.4154 141.172L42.5352 141.856L28.9821 144.217Z" fill="#A4A4A4"/>
<path d="M29.6558 148.168L29.5391 147.483L43.0712 145.125L43.1903 145.81L29.6558 148.168Z" fill="#A4A4A4"/>
<path d="M30.3296 152.119L30.2129 151.436L43.7263 149.082L43.8448 149.765L30.3296 152.119Z" fill="#A4A4A4"/>
<path d="M31.0044 156.071L30.8877 155.387L44.3815 153.037L44.5002 153.72L31.0044 156.071Z" fill="#A4A4A4"/>
<path d="M31.6792 160.022L31.5625 159.339L45.0371 156.99L45.1562 157.675L31.6792 160.022Z" fill="#A4A4A4"/>
<path d="M32.3532 163.973L32.2363 163.289L45.6918 160.944L45.811 161.628L32.3532 163.973Z" fill="#A4A4A4"/>
<path d="M43.7445 166.057C43.7753 165.941 43.7901 165.852 43.7785 165.809C43.7994 165.886 43.8208 165.964 43.8422 166.04L43.7445 166.057Z" fill="#A4A4A4"/>
<path d="M45.1898 171.953C45.0701 171.953 44.9576 171.888 44.9104 171.73L44.8797 171.583C44.7233 170.938 44.6557 170.26 44.5899 169.587C44.821 169.462 45.0213 169.278 45.1311 169.067C45.1393 169.051 45.1465 169.034 45.1525 169.019C45.2469 169.852 45.3435 170.69 45.5592 171.476C45.6344 171.748 45.4017 171.953 45.1898 171.953Z" fill="#D73D38"/>
<path d="M43.9914 169.75C43.9733 169.75 43.9557 169.75 43.9382 169.748C43.5545 169.728 43.061 169.651 42.7509 169.387C42.6922 169.337 42.64 169.279 42.5967 169.215L42.6406 169.095C42.6938 169.077 42.7493 169.064 42.8058 169.055C42.8849 169.042 42.9666 169.037 43.0495 169.037C43.196 169.037 43.3448 169.052 43.4837 169.066C43.549 169.07 43.6094 169.074 43.6664 169.074C44.0337 169.074 44.2318 168.945 44.5008 168.743C44.5474 168.708 44.5957 168.67 44.6473 168.632C44.7198 168.577 44.7933 168.554 44.8614 168.554C44.9657 168.554 45.0579 168.608 45.115 168.692C45.1748 168.78 45.1962 168.899 45.1523 169.019C45.1463 169.034 45.1391 169.051 45.1309 169.066C45.0211 169.277 44.8208 169.462 44.5897 169.587C44.4003 169.689 44.1895 169.75 43.9914 169.75Z" fill="#D73D38"/>
<path d="M43.4087 173.434C42.6923 173.434 42.009 173.275 41.4299 172.913C39.1756 171.506 38.1514 169.212 39.023 166.879C39.1186 166.624 39.2366 166.368 39.3787 166.113C39.4034 166.069 39.4287 166.023 39.455 165.979C40.1307 164.832 41.6308 163.541 42.9125 163.131C43.3681 162.987 43.7451 162.916 44.0838 162.916C44.8127 162.916 45.3649 163.244 46.1416 163.881L46.068 163.969C45.4132 163.502 44.7392 163.302 44.0816 163.302C42.5228 163.302 41.0572 164.433 40.167 165.822C40.1301 165.88 40.0951 165.937 40.0604 165.994C39.9078 166.249 39.7767 166.508 39.6696 166.767C38.9835 168.42 39.2421 170.106 40.6593 171.499C41.0237 171.858 41.4766 172.125 41.9794 172.308C42.0562 172.335 42.1341 172.36 42.2132 172.384C42.6907 172.527 43.2061 172.597 43.7286 172.597C45.4489 172.597 47.2519 171.84 48.0638 170.446C49.3652 168.2 47.9222 165.578 46.3474 163.962L46.4133 163.768C48.7603 163.917 49.7214 168.711 48.8366 170.386C47.9738 172.026 45.5433 173.434 43.4087 173.434Z" fill="#D73D38"/>
<path d="M134.545 161.405C134.42 161.591 134.296 161.785 134.164 161.986C133.96 162.324 133.752 162.686 133.559 163.064C133.368 163.445 133.174 163.841 133.007 164.252C132.824 164.658 132.683 165.083 132.527 165.502C132.395 165.93 132.249 166.352 132.146 166.78C132.029 167.2 131.941 167.622 131.857 168.029C131.702 168.846 131.598 169.613 131.56 170.275C131.536 170.605 131.521 170.907 131.524 171.182C131.523 171.456 131.516 171.693 131.532 171.877C131.551 172.251 131.561 172.464 131.561 172.464L132.264 172.477C132.264 172.477 132.284 172.264 132.316 171.891C132.33 171.701 132.366 171.488 132.403 171.24C132.436 170.996 132.489 170.716 132.555 170.411C132.678 169.8 132.877 169.1 133.127 168.367C133.259 168.004 133.391 167.629 133.556 167.257C133.705 166.881 133.893 166.515 134.067 166.146C134.264 165.786 134.444 165.42 134.659 165.083C134.859 164.738 135.08 164.416 135.294 164.106C135.511 163.799 135.734 163.515 135.948 163.251C136.173 162.997 136.372 162.746 136.584 162.548L136.73 162.402C136.035 161.915 135.303 161.634 134.545 161.405Z" fill="#734A29"/>
<path d="M145.679 178.148C145.679 185.75 138.847 193.646 131.912 191.915C125.683 193.826 118.147 185.75 118.147 178.148C118.147 170.546 124.609 165.518 131.912 169.649C139.294 165.647 145.679 170.546 145.679 178.148Z" fill="#E53935"/>
<path d="M121.502 182.986C121.502 182.986 121.342 182.775 121.083 182.397C120.959 182.21 120.81 181.985 120.675 181.663C120.547 181.355 120.353 180.974 120.265 180.578C120.161 180.179 120.024 179.733 119.986 179.255C119.963 179.014 119.926 178.765 119.91 178.509C119.913 178.255 119.917 177.994 119.919 177.728C119.919 177.46 119.946 177.191 119.989 176.92C120.028 176.647 120.065 176.369 120.125 176.094C120.264 175.547 120.409 174.986 120.646 174.456C120.845 173.91 121.156 173.412 121.439 172.911C121.785 172.446 122.094 171.961 122.504 171.573C122.877 171.16 123.343 170.847 123.771 170.566C124.237 170.322 124.677 170.101 125.128 169.997C125.581 169.894 125.981 169.809 126.365 169.838C126.741 169.848 127.052 169.857 127.315 169.953C127.836 170.101 128.095 170.253 128.095 170.253L128.179 170.568L128.142 170.615L128.124 170.633C128.124 170.633 127.891 170.862 127.546 171.142C127.374 171.271 127.186 171.481 126.98 171.667C126.766 171.839 126.564 172.085 126.338 172.302C126.223 172.402 126.114 172.531 126.006 172.661C125.894 172.779 125.777 172.9 125.658 173.024C125.438 173.306 125.179 173.543 124.948 173.849C124.685 174.117 124.458 174.444 124.211 174.76C123.999 175.107 123.748 175.439 123.567 175.821C123.345 176.18 123.2 176.579 123.012 176.959C122.939 177.157 122.866 177.354 122.795 177.55L122.681 177.842L122.601 178.139C122.542 178.337 122.482 178.533 122.426 178.722C122.383 178.919 122.343 179.111 122.304 179.298C122.203 179.678 122.18 180.042 122.123 180.387C122.055 180.743 122.069 181.027 122.032 181.319C121.987 181.598 122.002 181.881 122.015 182.108C122.016 182.564 122.005 182.83 122.005 182.83C121.998 182.983 121.867 183.103 121.712 183.096L121.502 182.986Z" fill="#F5B4B3"/>
<path d="M131.785 160.311C133.26 162.341 132.365 165.504 132.365 165.504C132.365 165.504 129.08 165.378 127.604 163.348C126.13 161.319 127.025 158.156 127.025 158.156C127.025 158.156 130.309 158.281 131.785 160.311Z" fill="#75B858"/>
<path d="M132.368 165.492C132.371 165.482 132.374 165.47 132.379 165.454L132.381 165.445L132.368 165.492Z" fill="#5F9960"/>
<path d="M126.756 160.303C126.754 159.109 127.024 158.156 127.024 158.156L127.086 158.16H127.087H127.086L127.024 158.156C127.024 158.156 126.754 159.109 126.756 160.303Z" fill="#4B8F2D"/>
<path d="M132.381 165.445V165.444C132.435 165.23 132.609 164.479 132.631 163.548V163.547C132.611 164.486 132.432 165.241 132.381 165.445Z" fill="#A0BEDD"/>
<path d="M130.628 159.245L130.624 159.243L130.628 159.245Z" fill="#B8CADD"/>
<path d="M130.454 159.139C129.554 158.611 128.547 158.365 127.857 158.252C128.546 158.364 129.554 158.611 130.454 159.139Z" fill="#A9C2DD"/>
<path d="M130.619 159.239C130.565 159.205 130.51 159.171 130.454 159.139C130.51 159.171 130.565 159.205 130.619 159.239Z" fill="#B8CADD"/>
<path d="M132.382 165.444L127.088 158.16C127.203 158.168 127.483 158.19 127.857 158.252C128.547 158.365 129.554 158.611 130.454 159.139C130.51 159.171 130.565 159.205 130.619 159.239L130.624 159.243L130.628 159.245C131.063 159.524 131.466 159.872 131.785 160.311L131.793 160.323L131.796 160.327C131.798 160.329 131.8 160.332 131.801 160.334L131.804 160.338L131.81 160.345L131.812 160.35L131.818 160.356L131.822 160.362L131.825 160.368L131.829 160.373L131.834 160.381L131.837 160.385L131.843 160.392L131.845 160.396C131.847 160.399 131.848 160.403 131.851 160.406L131.852 160.408C132.504 161.367 132.654 162.559 132.632 163.548C132.61 164.479 132.436 165.23 132.382 165.444Z" fill="#66A04C"/>
<path d="M132.379 165.454C132.379 165.45 132.38 165.448 132.382 165.444V165.445L132.379 165.454Z" fill="#538553"/>
<path d="M132.364 165.504C132.364 165.504 131.084 165.455 129.762 164.923C128.967 164.604 128.158 164.11 127.604 163.348C127.064 162.604 126.842 161.709 126.778 160.873C126.762 160.679 126.756 160.488 126.756 160.303C126.754 159.109 127.024 158.156 127.024 158.156L127.086 158.16H127.087L132.381 165.444C132.38 165.448 132.379 165.45 132.379 165.454L132.376 165.461L132.364 165.504Z" fill="#417C27"/>
<path d="M145.679 178.076C145.677 178.034 145.677 177.993 145.677 177.952C145.677 177.993 145.677 178.034 145.679 178.076Z" fill="#85B1DD"/>
<path d="M132.868 169.176C132.947 168.913 133.033 168.643 133.127 168.366C133.259 168.004 133.391 167.628 133.556 167.256C133.705 166.881 133.893 166.514 134.067 166.146C134.264 165.786 134.445 165.42 134.659 165.083C134.859 164.737 135.08 164.416 135.294 164.106C135.511 163.799 135.734 163.514 135.949 163.251C136.174 162.997 136.372 162.746 136.584 162.547L136.73 162.401L136.584 162.547C136.372 162.746 136.174 162.997 135.949 163.251C135.734 163.514 135.511 163.799 135.294 164.106C135.08 164.416 134.859 164.737 134.659 165.083C134.445 165.42 134.264 165.786 134.067 166.146C133.893 166.514 133.705 166.881 133.556 167.256C133.391 167.628 133.259 168.004 133.127 168.366C133.033 168.643 132.953 168.909 132.876 169.172L132.868 169.176Z" fill="#A0BEDD"/>
<path d="M132.082 169.558V167.036L132.147 166.78C132.25 166.352 132.396 165.93 132.528 165.502C132.684 165.083 132.825 164.658 133.008 164.252C133.174 163.841 133.368 163.445 133.559 163.064C133.753 162.686 133.961 162.324 134.165 161.986C134.296 161.785 134.42 161.591 134.545 161.405C135.303 161.634 136.036 161.915 136.731 162.402L136.585 162.548C136.373 162.746 136.174 162.997 135.949 163.251C135.735 163.515 135.511 163.799 135.295 164.106C135.08 164.416 134.859 164.738 134.659 165.083C134.445 165.42 134.264 165.786 134.068 166.146C133.893 166.515 133.705 166.881 133.557 167.257C133.391 167.629 133.259 168.004 133.128 168.367C133.034 168.644 132.947 168.913 132.869 169.177C132.608 169.293 132.346 169.42 132.082 169.558Z" fill="#644024"/>
<path d="M133.873 192.151C133.28 192.151 132.681 192.086 132.082 191.949V169.558C132.346 169.42 132.608 169.293 132.869 169.177L132.876 169.173L132.874 169.18C134.348 168.526 135.771 168.224 137.098 168.224C141.992 168.224 145.595 172.321 145.677 177.952C145.677 177.993 145.677 178.034 145.679 178.076V178.148C145.679 179.982 145.281 181.836 144.578 183.564C142.649 188.322 138.424 192.151 133.873 192.151Z" fill="#C7312E"/>
<path d="M27.1231 38.0521C21.1874 29.5904 23.0684 17.6054 31.2287 11.8822C35.2521 9.06137 40.2343 8.08115 45.2622 9.1207C50.088 10.1175 54.4511 12.9652 57.234 16.9303L51.7044 20.8093C49.8997 18.2362 47.0548 16.3874 43.8943 15.7326C40.7096 15.0761 37.5881 15.6706 35.1077 17.4111C30.0332 20.9702 28.885 28.8044 32.6509 34.1742L27.1231 38.0521Z" fill="#E53935"/>
<path d="M31.109 31.1323C31.007 30.8337 30.9169 30.533 30.8379 30.2292L30.85 30.2212C30.9284 30.5244 31.0185 30.8264 31.1189 31.1245L31.109 31.1323Z" fill="#AF9EB8"/>
<path d="M25.436 35.1116C25.3086 34.8344 25.1878 34.5551 25.0742 34.2733L30.8381 30.2292C30.9171 30.5328 31.0071 30.8335 31.1093 31.1322L25.436 35.1116Z" fill="#DD463F"/>
<path d="M26.8903 42.3396L23.0117 36.8119L57.4653 12.6436L61.3439 18.1708L26.8903 42.3396Z" fill="#D1594D"/>
<path d="M26.2189 41.3812L23.0117 36.8119L57.4653 12.6436L60.6996 17.2522L26.2189 41.3812Z" fill="#E53935"/>
<path d="M26.675 38.5115L26.4138 38.6941L24.416 35.8472L24.6763 35.6638L26.675 38.5115Z" fill="#FFEB3B"/>
<path d="M28.1694 37.462L27.9079 37.6454L25.9111 34.7976L26.1727 34.6143L28.1694 37.462Z" fill="#FFEB3B"/>
<path d="M29.6652 36.4133L29.403 36.5974L27.4062 33.749L27.6685 33.5657L29.6652 36.4133Z" fill="#FFEB3B"/>
<path d="M31.1608 35.3643L30.8972 35.55L28.8994 32.7007L29.1641 32.5166L31.1608 35.3643Z" fill="#FFEB3B"/>
<path d="M32.6559 34.3159L32.3923 34.5015L30.3945 31.6533L30.6592 31.4675L32.6559 34.3159Z" fill="#FFEB3B"/>
<path d="M34.1514 33.2666L33.8865 33.4507L31.8887 30.604L32.1529 30.4189L34.1514 33.2666Z" fill="#FFEB3B"/>
<path d="M35.6465 32.2163L35.3805 32.4048L33.3838 29.5562L33.6493 29.3691L35.6465 32.2163Z" fill="#FFEB3B"/>
<path d="M37.1429 31.1675L36.8749 31.3564L34.8789 28.5093L35.1443 28.3196L37.1429 31.1675Z" fill="#FFEB3B"/>
<path d="M38.6393 30.1177L38.3714 30.3071L36.374 27.4587L36.6419 27.271L38.6393 30.1177Z" fill="#FFEB3B"/>
<path d="M40.1328 29.071L39.8654 29.2588L37.8662 26.4105L38.1354 26.2239L40.1328 29.071Z" fill="#FFEB3B"/>
<path d="M41.6285 28.0221L41.358 28.2106L39.3613 25.3634L39.6318 25.1736L41.6285 28.0221Z" fill="#FFEB3B"/>
<path d="M43.1233 26.973L42.8541 27.1621L40.8574 24.3136L41.126 24.1245L43.1233 26.973Z" fill="#FFEB3B"/>
<path d="M44.6203 25.9236L44.3492 26.1128L42.3525 23.2656L42.6224 23.0747L44.6203 25.9236Z" fill="#FFEB3B"/>
<path d="M46.1155 24.8752L45.8443 25.0638L43.8477 22.2173L44.1175 22.0269L46.1155 24.8752Z" fill="#FFEB3B"/>
<path d="M47.6105 23.825L47.3386 24.0178L45.3408 21.1682L45.6125 20.9778L47.6105 23.825Z" fill="#FFEB3B"/>
<path d="M49.1053 22.7771L48.8342 22.9681L46.835 20.1208L47.1086 19.9287L49.1053 22.7771Z" fill="#FFEB3B"/>
<path d="M50.5999 21.728L50.3271 21.9185L48.3311 19.072L48.604 18.8789L50.5999 21.728Z" fill="#FFEB3B"/>
<path d="M52.0968 20.6776L51.8212 20.8712L49.8252 18.0228L50.0994 17.8301L52.0968 20.6776Z" fill="#FFEB3B"/>
<path d="M53.5929 19.6299L53.318 19.8235L51.3193 16.9751L51.5954 16.7815L53.5929 19.6299Z" fill="#FFEB3B"/>
<path d="M55.0876 18.58L54.8108 18.7736L52.8135 15.9258L53.0896 15.7317L55.0876 18.58Z" fill="#FFEB3B"/>
<path d="M56.5833 17.531L56.3065 17.7246L54.3086 14.8767L54.5866 14.6838L56.5833 17.531Z" fill="#FFEB3B"/>
<path d="M58.0781 16.4825L57.8019 16.6774L55.8027 13.8293L56.0794 13.6348L58.0781 16.4825Z" fill="#FFEB3B"/>
<path d="M61.7091 28.0402C62.494 27.4931 62.3623 25.9423 61.4132 24.5807C60.462 23.2182 59.0536 22.5585 58.2654 23.1063L57.5381 23.6139C56.7499 24.1625 56.8844 25.7128 57.8345 27.0775C58.7851 28.4398 60.1952 29.0983 60.9818 28.5495L61.7091 28.0402Z" fill="#D46583"/>
<path d="M34.0132 41.0802L30.7632 45.5976C30.6951 45.693 30.7336 45.866 30.8483 45.9835L31.1013 46.085L36.4639 44.5943C37.2763 44.3701 37.509 43.3131 36.9854 42.2351C36.4623 41.1564 35.381 40.466 34.5697 40.6917C34.3348 40.7559 34.1466 40.8976 34.0132 41.0802Z" fill="#696969"/>
<path d="M59.9902 29.2118L56.5749 24.3135L34.877 39.4474L38.2935 44.3464L59.9902 29.2118Z" fill="#FF9D00"/>
<path d="M55.3613 25.1597L55.7681 24.876L55.5194 25.0494L55.3613 25.1597Z" fill="#98B4D2"/>
<path d="M55.5195 25.0496L55.7682 24.8762L55.7685 24.8765L55.5195 25.0496Z" fill="#D28100"/>
<path d="M61.6669 28.0713L61.6664 28.071L61.6669 28.0713Z" fill="#98B4D2"/>
<path d="M61.2422 28.3667V28.3666L61.2504 28.3608L61.2422 28.3667Z" fill="#AF536C"/>
<path d="M37.4235 43.0989L35.751 40.7007L46.0211 33.5356L47.6019 35.9983L37.4235 43.0989Z" fill="#FFB53F"/>
<path d="M59.3707 30.0394L55.584 24.6118L57.6286 23.1851L61.4133 28.6121L59.3707 30.0394Z" fill="#D1D1D1"/>
<path d="M56.1934 24.1859L56.3855 24.0498L56.2395 24.1541L56.1934 24.1859Z" fill="#97B3D1"/>
<path d="M60.1725 29.479H60.1719L60.1725 29.4785L60.1731 29.479H60.1725Z" fill="#ABABAB"/>
<path d="M57.0157 23.6122L57.0151 23.6117L57.2045 23.4795L57.0157 23.6122Z" fill="#97B3D1"/>
<path d="M56.4375 24.0165L56.4554 24.0039L56.4535 24.0054L56.4375 24.0165Z" fill="#97B3D1"/>
<path d="M56.418 24.0302L56.4373 24.0166L56.4533 24.0054L56.4427 24.0134L56.418 24.0302Z" fill="#ABABAB"/>
<path d="M34.9254 45.26L32.8574 42.2957L34.8768 39.4473L38.2933 44.3466L34.9254 45.26Z" fill="#D1D1D1"/>
<path d="M34.3926 44.4952L33.6324 43.4062L33.3926 43.0616L35.7581 40.7139L37.4117 43.0844L34.3926 44.4952Z" fill="#DCDCDC"/>
<path d="M34.3565 45.178L32.7344 42.8584L32.9956 42.4946L34.1968 44.2166L34.3912 44.4957L34.3915 44.4956L34.7851 45.0598L34.3565 45.178Z" fill="#575656"/>
<path d="M34.1971 44.2167L32.9961 42.4948V42.4941L33.6328 43.4058L34.1971 44.2167Z" fill="#ACACAC"/>
<path d="M34.3917 44.4961L34.1973 44.2168L34.392 44.4961H34.3917Z" fill="#757575"/>
<path d="M34.3919 44.4961L34.1973 44.2168L33.6328 43.4062L34.3931 44.4956L34.3919 44.4961Z" fill="#B6B5B5"/>
<path d="M43.9776 30.3534L43.9775 30.3531L61.3438 18.1709L43.9776 30.3534Z" fill="#A0BEDD"/>
<path d="M49.3565 18.3314C49.115 18.1372 48.8675 17.9473 48.6117 17.7694C47.2383 16.8187 45.6762 16.12 44.0186 15.7588C45.6757 16.1194 47.2433 16.8088 48.6155 17.7579L48.6051 17.765C48.8642 17.944 49.1166 18.1317 49.3614 18.3282L49.3565 18.3314Z" fill="#85B1DD"/>
<path d="M44.2469 8.93787L44.2216 8.93408L44.2469 8.93787Z" fill="#85B1DD"/>
<path d="M55.0365 14.3472C54.8192 14.1338 54.5963 13.925 54.3691 13.7213L54.3762 13.7269C54.6007 13.9285 54.8208 14.1359 55.0371 14.3467L55.0365 14.3472Z" fill="#C7312E"/>
<path d="M49.3618 18.3281C49.117 18.1316 48.8645 17.944 48.6055 17.7649L48.6159 17.7578C48.8744 17.9368 49.1264 18.1251 49.3706 18.3221L49.3618 18.3281Z" fill="#9889A0"/>
<path d="M49.37 18.3224C49.1257 18.1252 48.8737 17.937 48.6152 17.7579L54.3687 13.7214C54.5959 13.9252 54.8188 14.1339 55.0361 14.3472L49.37 18.3224Z" fill="#C03D37"/>
<path d="M43.9771 30.3533L43.3574 29.3878L60.699 17.2524L60.6989 17.2526L60.6984 17.2538L61.3433 18.1709L43.9771 30.3533Z" fill="#B64D43"/>
<path d="M56.0796 13.635L55.8029 13.8298L57.802 16.6775L58.0781 16.4824L56.0796 13.635Z" fill="#C7312E"/>
<path d="M42.8541 27.1621L40.8574 24.3136L41.126 24.1245L43.1233 26.973L42.8541 27.1621Z" fill="#DECC33"/>
<path d="M44.3492 26.1128L42.3525 23.2656L42.6224 23.0747L44.6203 25.9236L44.3492 26.1128Z" fill="#DECC33"/>
<path d="M45.8443 25.0638L43.8477 22.2173L44.1175 22.0269L46.1155 24.8752L45.8443 25.0638Z" fill="#DECC33"/>
<path d="M47.3386 24.0178L45.3408 21.1682L45.6125 20.9778L47.6105 23.825L47.3386 24.0178Z" fill="#DECC33"/>
<path d="M48.8342 22.9681L46.835 20.1208L47.1086 19.9287L49.1053 22.7771L48.8342 22.9681Z" fill="#DECC33"/>
<path d="M50.3271 21.9185L48.3311 19.072L48.604 18.8789L50.5999 21.728L50.3271 21.9185Z" fill="#DECC33"/>
<path d="M51.8212 20.8712L49.8252 18.0228L50.0994 17.8301L52.0968 20.6776L51.8212 20.8712Z" fill="#DECC33"/>
<path d="M53.318 19.8235L51.3193 16.9751L51.5954 16.7815L53.5929 19.6299L53.318 19.8235Z" fill="#DECC33"/>
<path d="M54.8108 18.7736L52.8135 15.9258L53.0896 15.7317L55.0876 18.58L54.8108 18.7736Z" fill="#DECC33"/>
<path d="M56.3065 17.7246L54.3086 14.8767L54.5866 14.6838L56.5833 17.531L56.3065 17.7246Z" fill="#DECC33"/>
<path d="M57.8019 16.6774L55.8027 13.8293L56.0794 13.6348L58.0781 16.4825L57.8019 16.6774Z" fill="#DECC33"/>
<path d="M55.768 24.8759L55.5847 24.6118L55.7691 24.8752L55.768 24.8759Z" fill="#A0BEDD"/>
<path d="M46.0208 33.5356L45.1953 32.2495L53.714 26.3083L55.3607 25.1602V25.1597L56.2334 26.4104L46.0208 33.5356Z" fill="#DE8800"/>
<path d="M58.7787 30.0574L58.7783 30.0566L59.1852 29.7729L59.1856 29.7734L58.7787 30.0574Z" fill="#849CB6"/>
<path d="M58.7781 30.0568L57.9072 28.8091L58.3142 28.5249L59.185 29.7729L58.7781 30.0568Z" fill="#B77000"/>
<path d="M55.7681 24.8761L55.7692 24.8755L55.7681 24.8761Z" fill="#849CB6"/>
<path d="M56.2342 26.4104L55.3613 25.1597L55.5195 25.0493L55.7684 24.8765L55.7682 24.8762L55.7691 24.8755L56.6416 26.1262L56.2342 26.4104Z" fill="#B77000"/>
<path d="M47.6023 35.9983L46.0215 33.5356L56.2343 26.4106L57.9081 28.8088L47.6023 35.9983Z" fill="#DE9D37"/>
<path d="M57.9072 28.809L56.2334 26.4106L56.6409 26.1265L58.3141 28.5248L57.9072 28.809Z" fill="#C08B37"/>
<path d="M57.8013 23.4309L57.8008 23.4304L58.2657 23.1064L57.8013 23.4309Z" fill="#A0BEDD"/>
<path d="M61.666 28.0703L58.2245 23.1359L57.8008 23.4312V23.4307L58.2651 23.1062C58.4534 22.975 58.6768 22.9136 58.9211 22.9136C59.6999 22.9136 60.689 23.5437 61.413 24.5806C61.9471 25.3467 62.2221 26.1724 62.221 26.8458C62.2204 27.3694 62.0525 27.8008 61.7089 28.04L61.666 28.0703Z" fill="#B85872"/>
<path d="M61.251 28.3607L61.6658 28.0703L61.6662 28.0709V28.071L61.6667 28.0718L61.251 28.3607Z" fill="#849CB6"/>
<path d="M61.2425 28.3665L57.8008 23.4315L58.2242 23.1357L61.6656 28.0703L61.2507 28.3607L61.2425 28.3665Z" fill="#98485E"/>
<path d="M57.2054 23.4808L57.2043 23.4797L57.2054 23.4803L57.6286 23.1851L57.2054 23.4808Z" fill="#A0BEDD"/>
<path d="M56.387 24.0522V24.0516L56.4117 24.0347L56.4178 24.0303L56.387 24.0522Z" fill="#B6B5B5"/>
<path d="M56.1592 24.2107L56.1938 24.1859L56.2399 24.1541L56.3859 24.0498L56.3875 24.0516L56.1592 24.2107Z" fill="#839BB5"/>
<path d="M59.9954 29.6024L60.1727 29.4779L60.1732 29.4784L60.1727 29.4789H60.1732L60.1392 29.5031L59.9954 29.6024Z" fill="#959494"/>
<path d="M57.0162 23.6129L57.0156 23.6119L57.0162 23.6124L57.2054 23.4795L57.2061 23.4806L57.0162 23.6129Z" fill="#839BB5"/>
<path d="M60.8018 29.0386L57.0156 23.6128L57.2054 23.4805L60.9913 28.9062L60.8018 29.0386Z" fill="#959494"/>
<path d="M56.8263 23.7451L56.8262 23.7449L56.926 23.6743L56.9371 23.6665L56.8263 23.7451Z" fill="#839BB5"/>
<path d="M60.1722 29.4775L56.3867 24.052L56.4174 24.0302L56.4421 24.0133L56.4528 24.0054L56.4547 24.0039L60.2407 29.4297L60.1722 29.4775Z" fill="#959494"/>
<path d="M59.9824 29.6116L56.1982 24.1849L56.3875 24.052L60.173 29.4777L59.9954 29.6023L59.9822 29.6113" fill="#7A797A"/>
<path d="M56.7988 23.7637L56.8257 23.7451L56.7988 23.7637Z" fill="#839BB5"/>
<path d="M60.5417 29.2203L56.7559 23.7947L56.7991 23.764L56.826 23.7454L60.6111 29.172L60.8017 29.0389L60.8022 29.0397L60.7619 29.0676L60.5417 29.2203Z" fill="#959494"/>
<path d="M56.9365 23.6666L57.0144 23.6113L57.0149 23.6121L56.9365 23.6666Z" fill="#839BB5"/>
<path d="M56.8264 23.7452H56.8262L56.9369 23.6665L57.0153 23.6118L57.016 23.6129L56.8264 23.7452Z" fill="#6C7F94"/>
<path d="M60.6113 29.1718L56.8262 23.7451L57.0157 23.6128L60.8019 29.0387L60.6113 29.1718Z" fill="#7A797A"/>
<path d="M195.103 107.759C195.371 107.759 195.639 107.659 195.844 107.466C196.05 107.268 196.151 107.012 196.151 106.756V71.4348C196.151 71.1797 196.05 70.9238 195.844 70.7292C195.639 70.5332 195.371 70.4348 195.103 70.4348H148.605C148.338 70.4348 148.069 70.5332 147.864 70.7292C147.659 70.9238 147.556 71.1797 147.556 71.4348V106.756C147.556 107.012 147.659 107.268 147.864 107.466C148.069 107.659 148.338 107.759 148.605 107.759H195.103Z" fill="#1C5891"/>
<path d="M191.366 104.501V73.6938H151.03V104.501H191.366Z" fill="white"/>
<path d="M193.781 90.3391C194.469 90.3391 195.022 89.7814 195.022 89.0969C195.022 88.4131 194.469 87.8542 193.781 87.8542C193.095 87.8542 192.538 88.4131 192.538 89.0969C192.538 89.7814 193.095 90.3391 193.781 90.3391Z" fill="white"/>
<path d="M157.133 102.018V76.1772H153.723V102.018H157.133Z" fill="#C4C4C4"/>
<path d="M183.498 80.5586V76.2544H159.1V80.5586H183.498Z" fill="#C4C4C4"/>
<path d="M172.611 102.018V82.7361H159.1V102.018H172.611Z" fill="#C4C4C4"/>
<path d="M183.498 102.018V93.0977H173.66V102.018H183.498Z" fill="#C4C4C4"/>
<path d="M183.498 91.787V82.7361H173.66V91.787H183.498Z" fill="#C4C4C4"/>
<path d="M187.04 88.476V75.6328H185.466V88.476H187.04Z" fill="#C4C4C4"/>
<path d="M187.04 102.562V89.7168H185.466V102.562H187.04Z" fill="#C4C4C4"/>
<path d="M189.796 88.476V75.6328H188.221V88.476H189.796Z" fill="#C4C4C4"/>
<path d="M189.796 102.562V89.7168H188.221V102.562H189.796Z" fill="#C4C4C4"/>
<path d="M169.974 59.9846C169.974 61.7582 168.535 63.1963 166.764 63.1963C164.991 63.1963 163.553 61.7582 163.553 59.9846C163.553 58.2118 164.991 56.772 166.764 56.772C168.535 56.772 169.974 58.2118 169.974 59.9846Z" fill="#F8D636"/>
<path d="M177.613 56.5446L174.597 42.9442H174.589C173.938 39.2074 170.685 36.3652 166.763 36.3652C162.84 36.3652 159.59 39.2074 158.936 42.9442H158.928L155.913 56.5446H177.613Z" fill="#F8D636"/>
<path d="M179.036 59.9846H154.49L153.993 57.5372C153.993 57.1556 154.139 56.7764 154.43 56.4861C154.72 56.1957 155.101 56.0508 155.481 56.0508H178.045C178.425 56.0508 178.806 56.1957 179.097 56.4861C179.387 56.7764 179.531 57.1556 179.531 57.5372L179.036 59.9846Z" fill="#F5B70D"/>
<path d="M168.208 27.3899L166.763 42.013L165.317 27.3899C165.238 26.5913 165.822 25.8806 166.621 25.8015C167.419 25.7231 168.13 26.3065 168.208 27.1046V27.3899Z" fill="#F8D636"/>
<path d="M165.695 34.5935L159.818 35.605C159.457 35.6095 159.116 35.3838 158.902 34.9392C158.686 34.4975 158.642 33.9322 158.751 33.4041L159.534 29.5563C159.641 29.0296 159.897 28.5463 160.26 28.2621C160.623 27.9771 161.015 27.9513 161.337 28.1424L165.695 31.1289V34.5935Z" fill="#FB360C"/>
<path d="M165.694 34.5934L160.528 36.6973C160.177 36.7972 159.8 36.6678 159.503 36.2929C159.206 35.9191 159.054 35.3817 159.054 34.8378V30.8857C159.054 30.3441 159.206 29.8056 159.503 29.4296C159.8 29.0579 160.177 28.9279 160.528 29.0278L165.694 31.129V34.5934Z" fill="#FF601F"/>
<path d="M165.695 33.7471L161.415 34.8218C161.126 34.8724 160.814 34.806 160.567 34.6146C160.322 34.4246 160.195 34.15 160.195 33.8729V31.8519C160.195 31.576 160.322 31.2996 160.567 31.1087C160.814 30.9178 161.126 30.8511 161.415 30.9034L165.695 31.9776V33.7471Z" fill="#FB360C"/>
<path d="M167.804 34.5935L173.68 35.605C174.043 35.6095 174.382 35.3838 174.598 34.9392C174.814 34.4975 174.855 33.9322 174.748 33.4041L173.965 29.5563C173.858 29.0296 173.604 28.5463 173.239 28.2621C172.878 27.9771 172.484 27.9513 172.162 28.1424L167.804 31.1289V34.5935Z" fill="#FB360C"/>
<path d="M167.804 34.5934L172.971 36.6973C173.322 36.7972 173.699 36.6672 173.996 36.2929C174.293 35.9191 174.447 35.3817 174.447 34.8378V30.8857C174.447 30.3441 174.293 29.8056 173.996 29.4296C173.699 29.0579 173.322 28.9279 172.971 29.0278L167.804 31.129V34.5934Z" fill="#FF601F"/>
<path d="M167.804 33.7471L172.083 34.8218C172.374 34.8724 172.686 34.806 172.932 34.6146C173.177 34.4246 173.304 34.15 173.304 33.8729V31.8519C173.304 31.576 173.177 31.2996 172.932 31.1087C172.686 30.9178 172.374 30.8511 172.083 30.9034L167.804 31.9776V33.7471Z" fill="#FB360C"/>
<path d="M165.47 33.2588L160.841 37.3876L162.461 38.0249L163.57 39.2802L166.299 34.2314L165.47 33.2588Z" fill="#FB360C"/>
<path d="M167.888 33.2588L172.42 37.3876L170.847 38.0156L170.011 39.2802L167.058 34.2314L167.888 33.2588Z" fill="#FB360C"/>
<path d="M168.457 34.3562H165.111V31.1401H168.457V34.3562Z" fill="#FF601F"/>
<path d="M168.457 34.4684H165.111V33.9956H168.457V34.4684Z" fill="#FB360C"/>
<path d="M168.457 31.4934H165.111V31.0286H168.457V31.4934Z" fill="#FB360C"/>
<path d="M168.294 33.8336H165.461L168.294 31.8911V33.8336Z" fill="#FB360C"/>
<path d="M160.332 53.2397L158.674 52.9321L160.061 45.46L161.72 45.7668L160.332 53.2397Z" fill="white"/>
<path d="M161.956 44.4871L160.311 44.1157L160.864 41.6614L162.511 42.0327L161.956 44.4871Z" fill="white"/>
<path d="M169.973 60.0052V59.9845H179.035L179.426 58.0623L179.035 59.9845H169.973V60.0052Z" fill="#A0BEDD"/>
<path d="M174.748 33.4042L174.447 31.9194V30.8857V31.9172L174.748 33.4042Z" fill="#85B1DD"/>
<path d="M166.84 63.1871V59.9844H169.973V60.0052V60.0157V60.0256C169.973 60.03 169.973 60.0343 169.972 60.0387V60.0459V60.0596V60.0668V60.0798V60.0872C169.971 60.0916 169.971 60.0964 169.971 60.1008V60.1074V60.1233L169.97 60.1277V60.1447V60.1475C169.968 60.1541 169.968 60.1605 169.968 60.1672V60.1678C169.874 61.8297 168.514 63.1482 166.84 63.1871Z" fill="#D8BA2F"/>
<path d="M177.504 56.0505H166.84V41.2412L167.318 36.3845H167.32V36.39C167.691 36.4153 168.053 36.4668 168.41 36.542L170.011 39.2805L170.847 38.0153L171.342 37.8181C172.997 38.9885 174.184 40.7756 174.571 42.8456L174.575 42.869L174.576 42.8708L174.58 42.8926V42.8961L174.584 42.918L174.586 42.9202L174.59 42.9442H174.597L177.504 56.0505Z" fill="#D8BA2F"/>
<path d="M179.036 59.9846H169.973H166.84V56.0508H177.504H178.046C178.425 56.0508 178.806 56.1957 179.097 56.4861C179.387 56.7764 179.532 57.1556 179.532 57.5372L179.426 58.0625L179.036 59.9846Z" fill="#D59F0B"/>
<path d="M166.84 41.2411V34.4685H167.196L167.463 34.925V34.9259V34.9257L167.429 35.2809L167.319 36.3846L166.84 41.2411Z" fill="#D8BA2F"/>
<path d="M168.051 31.0286H167.951L172.163 28.1425C172.298 28.0618 172.448 28.0195 172.602 28.0195C172.813 28.0195 173.031 28.098 173.24 28.2621C173.547 28.5031 173.77 28.8884 173.898 29.3188C173.686 29.1021 173.443 28.9955 173.201 28.9955C173.124 28.9955 173.046 29.006 172.971 29.0278L168.051 31.0286Z" fill="#DA2F0A"/>
<path d="M173.202 36.7297C173.124 36.7297 173.046 36.7188 172.972 36.6973L170.605 35.7334L168.66 33.9623L172.083 34.8218C172.145 34.8328 172.209 34.8384 172.272 34.8384C172.504 34.8384 172.739 34.7646 172.933 34.6143C173.178 34.4244 173.305 34.1499 173.305 33.8727V31.8518C173.305 31.5757 173.178 31.2996 172.933 31.1085C172.74 30.9592 172.507 30.8862 172.276 30.8862C172.211 30.8862 172.147 30.8917 172.083 30.9033L168.458 31.8132V31.4934V31.0284H168.051L172.972 29.0277C173.046 29.0059 173.124 28.9954 173.202 28.9954C173.443 28.9954 173.687 29.1019 173.899 29.3187C173.901 29.3252 173.902 29.3318 173.905 29.3384L173.997 29.4296C174.294 29.8055 174.448 30.344 174.448 30.8856V31.9192V34.8378C174.448 34.9672 174.438 35.0968 174.42 35.2236L174.419 35.2263C174.364 35.6298 174.221 36.0085 173.997 36.2928C173.764 36.5864 173.481 36.7297 173.202 36.7297Z" fill="#DE531B"/>
<path d="M172.271 34.8383C172.208 34.8383 172.145 34.8326 172.083 34.8218L168.66 33.9622L168.457 33.7778V31.8132L172.083 30.9032C172.146 30.8917 172.21 30.8862 172.275 30.8862C172.506 30.8862 172.74 30.9591 172.932 31.1085C173.177 31.2996 173.304 31.5756 173.304 31.8517V33.8728C173.304 34.1499 173.177 34.4243 172.932 34.6143C172.739 34.7646 172.503 34.8383 172.271 34.8383Z" fill="#DA2F0A"/>
<path d="M170.01 39.28L168.409 36.542V36.5422L168.266 36.2976L167.463 34.9248L167.195 34.4683H168.457V33.9956V33.7778L168.66 33.9622L170.604 35.7336L170.605 35.7344L170.604 35.7336L172.419 37.3875L171.34 37.8174L171.341 37.8179L170.847 38.0154L170.01 39.28Z" fill="#DA2F0A"/>
<path d="M168.458 33.9956H166.84V33.8335H168.294V31.891L166.84 32.8879V31.4932H168.458V31.8132V33.7778V33.9956Z" fill="#DE531B"/>
<path d="M167.848 31.0288L168.208 27.3899V27.1047V27.3899L167.848 31.0288Z" fill="#85B1DD"/>
<path d="M167.848 31.0284H166.84V25.802C167.545 25.8389 168.137 26.3795 168.208 27.1045V27.3901L167.848 31.0284Z" fill="#D8BA2F"/>
<path d="M168.458 34.4684H167.196H166.84V33.9956H168.458V34.4684Z" fill="#DA2F0A"/>
<path d="M168.458 31.4934H166.84V31.0286H167.848H167.952H168.051H168.458V31.4934Z" fill="#DA2F0A"/>
<path d="M168.294 33.8336H166.84V32.8879L168.294 31.8911V33.8336Z" fill="#DA2F0A"/>
<path d="M73.39 163.055V161.877C73.39 161.109 73.6996 160.388 74.2606 159.845C74.8221 159.299 75.568 159.002 76.3633 159.002H80.9833C81.7787 159.002 82.523 159.299 83.085 159.845C83.6454 160.388 83.955 161.109 83.955 161.877V163.055H85.4414V161.877C85.4414 160.725 84.9776 159.64 84.1356 158.828C83.2942 158.013 82.1744 157.563 80.9833 157.563H76.3633C75.1701 157.563 74.052 158.013 73.2105 158.828C72.3691 159.64 71.9053 160.725 71.9053 161.877V163.055H73.39Z" fill="#FF9D00"/>
<path d="M70.7651 167.214H66.1777V160.91H70.7651V167.214Z" fill="#FF9D00"/>
<path d="M91.1693 167.214H86.583V160.91H91.1693V167.214Z" fill="#FF9D00"/>
<path d="M93.7499 196.302C93.7499 197.221 93.386 198.139 92.6615 198.843C91.937 199.544 90.9857 199.897 90.0378 199.897H67.3106C66.3605 199.897 65.4092 199.544 64.6852 198.843C63.9591 198.139 63.5957 197.221 63.5957 196.302V169.36C63.5957 167.521 64.3224 165.681 65.7721 164.278C67.2233 162.874 69.1241 162.173 71.0233 162.173H86.3218C88.2227 162.173 90.1245 162.874 91.5742 164.278C93.0243 165.681 93.7499 167.521 93.7499 169.36V196.302Z" fill="#1C5891"/>
<path d="M92.2121 194.854C92.2121 195.708 91.8663 196.562 91.1779 197.214C90.4897 197.864 89.5834 198.192 88.6811 198.192H68.667C67.763 198.192 66.8584 197.864 66.1674 197.214C65.479 196.562 65.1338 195.708 65.1338 194.854V180.735C65.1338 177.24 66.4368 173.744 69.0413 171.074C71.6469 168.409 75.0598 167.075 78.4772 167.075H78.8691C82.2843 167.075 85.6984 168.409 88.3067 171.074C90.9095 173.744 92.2121 177.24 92.2121 180.735V194.854Z" fill="#CFCFCF"/>
<path d="M90.6237 196.005H66.8535V189.805C66.8535 188.888 67.2152 187.965 67.9409 187.266C68.6649 186.563 69.6172 186.212 70.5667 186.212H86.9099C87.8589 186.212 88.8107 186.563 89.5363 187.266C90.2608 187.965 90.6237 188.888 90.6237 189.805V196.005Z" fill="#1C5891"/>
<path d="M89.6085 179.613H67.7402V178.588H89.6085V179.613Z" fill="#27B2F2"/>
<path d="M89.6085 179.2H67.7402V179.001H89.6085V179.2Z" fill="#1C5891"/>
<path d="M88.2098 190.615H69.1377V189.589H88.2098V190.615Z" fill="#27B2F2"/>
<path d="M88.2098 190.207H69.1377V189.994H88.2098V190.207Z" fill="#1C5891"/>
<path d="M67.7403 181.819C67.3747 181.819 67.0789 181.535 67.0789 181.181C67.0789 180.828 67.3747 180.542 67.7403 180.542C68.1048 180.542 68.3995 180.828 68.3995 181.181C68.3995 181.535 68.1048 181.819 67.7403 181.819ZM67.7403 179.102C67.7403 179.102 66.7891 180.606 66.7891 181.131C66.7891 181.653 67.215 182.08 67.7403 182.08C68.2672 182.08 68.6915 181.653 68.6915 181.131C68.6915 180.606 67.7403 179.102 67.7403 179.102Z" fill="#27B2F2"/>
<path d="M69.1373 192.82C68.7729 192.82 68.4781 192.534 68.4781 192.18C68.4781 191.827 68.7729 191.542 69.1373 191.542C69.5012 191.542 69.7982 191.827 69.7982 192.18C69.7982 192.534 69.5012 192.82 69.1373 192.82ZM69.1373 190.103C69.1373 190.103 68.1855 191.607 68.1855 192.129C68.1855 192.656 68.6131 193.079 69.1373 193.079C69.6632 193.079 70.0913 192.656 70.0913 192.129C70.0913 191.607 69.1373 190.103 69.1373 190.103Z" fill="#27B2F2"/>
<path d="M91.5743 164.278L91.5605 164.263L91.5743 164.278Z" fill="#A9C2DD"/>
<path d="M85.4415 162.173H83.9551V161.877C83.9551 161.109 83.6455 160.388 83.0851 159.845C82.523 159.299 81.7787 159.002 80.9834 159.002H78.6797V157.563H80.9834C82.1745 157.563 83.2942 158.013 84.1356 158.828C84.9776 159.64 85.4415 160.725 85.4415 161.877V162.173Z" fill="#DE8800"/>
<path d="M91.1695 163.914C89.85 162.812 88.2242 162.232 86.583 162.178V160.91H91.1695V163.914Z" fill="#DE8800"/>
<path d="M90.0378 199.897H78.6797V198.192H88.681C89.5834 198.192 90.4896 197.864 91.1779 197.214C91.8662 196.562 92.212 195.708 92.212 194.854V180.736C92.212 177.24 90.9095 173.744 88.3066 171.075C85.6983 168.409 82.2842 167.075 78.8691 167.075H78.6797V162.173H83.9551H85.4415H86.3219L86.5826 162.185V162.178C88.2238 162.233 89.8496 162.812 91.1691 163.914V163.924C91.3019 164.034 91.4348 164.144 91.5605 164.264L91.5742 164.278C93.0243 165.681 93.75 167.521 93.75 169.36V171.272V186.758V196.302C93.75 197.221 93.386 198.139 92.6615 198.843C91.937 199.544 90.9858 199.897 90.0378 199.897Z" fill="#184C7E"/>
<path d="M88.681 198.192H78.6797V196.005H90.6229V189.805C90.6229 188.888 90.2601 187.965 89.5356 187.266C88.81 186.562 87.8582 186.212 86.9092 186.212H78.6797V179.613H89.608V179.2V179.001V178.588H78.6797V167.075H78.8691C82.2842 167.075 85.6983 168.409 88.3066 171.074C90.9095 173.744 92.212 177.24 92.212 180.735V194.854C92.212 195.708 91.8662 196.562 91.1779 197.214C90.4896 197.864 89.5834 198.192 88.681 198.192Z" fill="#B4B4B4"/>
<path d="M90.6229 196.005H78.6797V190.615H88.2095V190.208V189.995V189.589H78.6797V186.212H86.9092C87.8582 186.212 88.81 186.563 89.5356 187.266C90.2601 187.965 90.6229 188.888 90.6229 189.805V196.005Z" fill="#184C7E"/>
<path d="M89.608 179.001H78.6797V178.588H89.608V179.001Z" fill="#229AD2"/>
<path d="M89.608 179.2H78.6797V179.001H89.608V179.2Z" fill="#184C7E"/>
<path d="M88.2095 189.995H78.6797V189.589H88.2095V189.995Z" fill="#229AD2"/>
<path d="M88.2097 190.207H78.6797V189.994H88.2097V190.207Z" fill="#184C7E"/>
</svg>
