<svg width="91" height="92" viewBox="0 0 91 92" fill="none" xmlns="http://www.w3.org/2000/svg">
<path d="M10 1.94336H81C85.6944 1.94336 89.5 5.74894 89.5 10.4434V81.4434C89.5 86.1378 85.6944 89.9434 81 89.9434H10C5.30558 89.9434 1.5 86.1378 1.5 81.4434V10.4434C1.5 5.74894 5.30558 1.94336 10 1.94336Z" stroke="#004980" stroke-width="3"/>
<g filter="url(#filter0_d_2_797)">
<path d="M72.6172 44.6534L29.4041 73.4142V15.8927L72.6172 44.6534Z" fill="#004880"/>
</g>
<path d="M10 1.94336H81C85.6944 1.94336 89.5 5.74894 89.5 10.4434V81.4434C89.5 86.1378 85.6944 89.9434 81 89.9434H10C5.30558 89.9434 1.5 86.1378 1.5 81.4434V10.4434C1.5 5.74894 5.30558 1.94336 10 1.94336Z" stroke="#004980" stroke-width="3"/>
<g filter="url(#filter1_d_2_797)">
<path d="M72.6172 44.6534L29.4041 73.4142V15.8927L72.6172 44.6534Z" fill="#004880"/>
</g>
<defs>
<filter id="filter0_d_2_797" x="26.4041" y="15.8927" width="49.2131" height="65.5215" filterUnits="userSpaceOnUse" color-interpolation-filters="sRGB">
<feFlood flood-opacity="0" result="BackgroundImageFix"/>
<feColorMatrix in="SourceAlpha" type="matrix" values="0 0 0 0 0 0 0 0 0 0 0 0 0 0 0 0 0 0 127 0" result="hardAlpha"/>
<feOffset dy="5"/>
<feGaussianBlur stdDeviation="1.5"/>
<feComposite in2="hardAlpha" operator="out"/>
<feColorMatrix type="matrix" values="0 0 0 0 0 0 0 0 0 0 0 0 0 0 0 0 0 0 0.160784 0"/>
<feBlend mode="normal" in2="BackgroundImageFix" result="effect1_dropShadow_2_797"/>
<feBlend mode="normal" in="SourceGraphic" in2="effect1_dropShadow_2_797" result="shape"/>
</filter>
<filter id="filter1_d_2_797" x="26.4041" y="15.8927" width="49.2131" height="65.5215" filterUnits="userSpaceOnUse" color-interpolation-filters="sRGB">
<feFlood flood-opacity="0" result="BackgroundImageFix"/>
<feColorMatrix in="SourceAlpha" type="matrix" values="0 0 0 0 0 0 0 0 0 0 0 0 0 0 0 0 0 0 127 0" result="hardAlpha"/>
<feOffset dy="5"/>
<feGaussianBlur stdDeviation="1.5"/>
<feComposite in2="hardAlpha" operator="out"/>
<feColorMatrix type="matrix" values="0 0 0 0 0 0 0 0 0 0 0 0 0 0 0 0 0 0 0.160784 0"/>
<feBlend mode="normal" in2="BackgroundImageFix" result="effect1_dropShadow_2_797"/>
<feBlend mode="normal" in="SourceGraphic" in2="effect1_dropShadow_2_797" result="shape"/>
</filter>
</defs>
</svg>
